{"glyphs":{"0":{"ha":858,"x_min":0,"x_max":0,"o":"m 825 438 b 429 892 825 728 669 892 b 33 438 190 892 33 728 b 429 -17 33 147 190 -17 b 825 438 669 -17 825 147 z m 576 438 b 429 174 576 257 536 174 b 283 438 324 174 283 257 b 429 701 283 618 324 701 b 576 438 536 701 576 618 z "},"1":{"ha":493,"x_min":0,"x_max":0,"o":"m 15 586 l 179 586 l 179 0 l 415 0 l 415 875 l 231 875 b 15 742 199 783 138 742 z "},"2":{"ha":724,"x_min":0,"x_max":0,"o":"m 374 196 l 482 279 b 700 610 622 388 700 458 b 367 892 700 772 579 892 b 26 582 165 892 26 769 b 38 500 26 556 32 528 l 268 493 b 258 565 263 511 258 532 b 358 692 258 636 286 692 b 453 596 428 692 453 650 b 275 360 453 513 408 467 l 33 169 l 33 0 l 711 0 l 711 196 z "},"3":{"ha":753,"x_min":0,"x_max":0,"o":"m 485 257 b 383 174 485 201 438 174 b 251 294 306 174 254 211 l 19 301 b 383 -17 19 107 154 -17 b 726 239 588 -17 726 75 b 547 443 726 346 663 424 b 704 631 629 454 704 525 b 379 892 704 786 586 892 b 31 567 160 892 31 747 l 257 557 b 372 701 257 639 296 701 b 471 606 438 701 471 664 b 371 514 471 544 422 514 b 304 517 349 514 318 514 l 304 349 b 368 351 328 351 351 351 b 485 257 435 351 485 321 z "},"4":{"ha":817,"x_min":0,"x_max":0,"o":"m 685 875 l 401 875 l 25 400 l 25 185 l 453 185 l 453 0 l 685 0 l 685 185 l 797 185 l 797 383 l 685 383 z m 453 669 l 453 383 l 226 383 z "},"5":{"ha":735,"x_min":0,"x_max":0,"o":"m 647 875 l 99 875 b 42 381 94 731 63 500 l 268 364 b 378 419 290 397 322 419 b 496 293 456 419 496 361 b 376 174 496 218 447 174 b 256 292 303 174 257 217 l 29 307 b 376 -17 22 106 144 -17 b 713 293 569 -17 713 99 b 408 596 713 464 611 596 b 254 553 332 596 285 576 b 272 669 261 586 269 632 l 647 669 z "},"6":{"ha":781,"x_min":0,"x_max":0,"o":"m 413 704 b 525 614 478 704 518 674 l 744 618 b 417 892 728 793 606 892 b 33 433 163 892 33 700 b 411 -17 33 156 165 -17 b 753 286 610 -17 753 97 b 447 569 753 453 639 569 b 250 489 363 569 290 539 b 413 704 258 617 315 704 z m 288 281 b 407 396 288 350 332 396 b 529 281 485 396 529 350 b 407 168 529 214 485 168 b 288 281 332 168 288 215 z "},"7":{"ha":710,"x_min":0,"x_max":0,"o":"m 433 664 b 193 0 257 471 197 285 l 451 0 b 689 689 453 271 460 464 l 689 875 l 21 875 l 21 664 z "},"8":{"ha":776,"x_min":0,"x_max":0,"o":"m 389 721 b 496 624 454 721 496 686 b 389 532 496 564 454 532 b 285 624 325 532 285 564 b 389 721 285 686 325 721 z m 389 369 b 513 265 467 369 513 333 b 389 160 513 197 467 160 b 264 265 311 160 264 197 b 389 369 264 333 311 369 z m 389 -17 b 749 239 618 -17 749 82 b 588 453 749 349 683 428 b 722 649 675 489 722 547 b 389 892 722 800 585 892 b 54 649 192 892 54 800 b 189 453 54 547 101 489 b 28 239 93 428 28 349 b 389 -17 28 82 158 -17 z "},"9":{"ha":781,"x_min":0,"x_max":0,"o":"m 368 171 b 256 261 303 171 263 201 l 36 257 b 364 -17 53 82 175 -17 b 747 442 618 -17 747 175 b 369 892 747 719 615 892 b 28 589 171 892 28 778 b 333 306 28 422 142 306 b 531 386 418 306 490 336 b 368 171 522 258 465 171 z m 493 594 b 374 479 493 525 449 479 b 251 594 296 479 251 525 b 374 707 251 661 296 707 b 493 594 449 707 493 660 z "}," ":{"ha":250,"x_min":0,"x_max":0,"o":""},"!":{"ha":322,"x_min":0,"x_max":0,"o":"m 42 0 l 281 0 l 281 239 l 42 239 z m 42 875 l 42 650 l 89 292 l 233 292 l 281 650 l 281 875 z "},"\"":{"ha":510,"x_min":0,"x_max":0,"o":"m 42 514 l 221 514 l 221 875 l 42 875 z m 289 514 l 468 514 l 468 875 l 289 875 z "},"#":{"ha":856,"x_min":0,"x_max":0,"o":"m 772 369 l 639 369 l 672 506 l 799 506 l 828 644 l 704 644 l 760 875 l 592 875 l 536 644 l 417 644 l 472 875 l 304 875 l 249 644 l 113 644 l 83 506 l 217 506 l 183 369 l 57 369 l 28 231 l 150 231 l 96 0 l 264 0 l 318 231 l 438 231 l 383 0 l 551 0 l 606 231 l 743 231 z m 385 506 l 504 506 l 471 369 l 351 369 z "},"$":{"ha":842,"x_min":0,"x_max":0,"o":"m 31 310 b 364 -12 31 121 165 8 l 364 -139 l 475 -139 l 475 -15 b 803 263 661 -4 803 88 b 536 526 803 406 719 494 l 475 538 l 475 704 b 578 575 532 685 572 640 l 785 579 b 475 888 781 754 674 868 l 475 996 l 364 996 l 364 889 b 51 607 171 875 51 772 b 294 353 51 454 151 376 l 364 340 l 364 172 b 242 317 299 190 247 236 z m 581 247 b 475 164 581 199 542 171 l 475 322 b 581 247 538 311 581 294 z m 272 628 b 364 713 272 678 304 704 l 364 557 b 272 628 311 567 272 582 z "},"%":{"ha":1104,"x_min":0,"x_max":0,"o":"m 179 647 b 256 768 179 733 206 768 b 332 647 306 768 332 733 b 256 526 332 561 306 526 b 179 647 206 526 179 561 z m 28 647 b 256 403 28 494 135 403 b 483 647 376 403 483 494 b 256 892 483 800 376 892 b 28 647 135 892 28 800 z m 925 228 b 849 107 925 142 899 107 b 772 228 799 107 772 142 b 849 349 772 314 799 349 b 925 228 899 349 925 314 z m 860 875 l 706 875 l 244 0 l 399 0 z m 1076 228 b 849 472 1076 381 969 472 b 621 228 728 472 621 381 b 849 -17 621 75 728 -17 b 1076 228 969 -17 1076 75 z "},"&":{"ha":942,"x_min":0,"x_max":0,"o":"m 692 456 b 631 325 675 408 656 364 l 510 443 b 681 681 629 507 681 565 b 410 892 681 797 585 892 b 117 653 254 892 117 806 b 199 465 117 571 149 521 b 21 232 79 404 21 338 b 346 -17 21 67 161 -17 b 604 56 444 -17 531 11 b 785 -11 682 -4 743 -11 b 928 25 851 -11 903 6 l 928 161 b 856 151 897 154 879 151 b 761 196 813 151 793 165 b 894 447 824 275 868 365 z m 358 156 b 246 244 294 156 246 182 b 314 347 246 289 272 321 l 476 181 b 358 156 440 165 401 156 z m 332 660 b 410 733 332 701 363 733 b 482 663 457 733 482 701 b 397 553 482 614 461 586 b 332 660 365 583 332 618 z "},"’":{"ha":318,"x_min":0,"x_max":0,"o":"m 42 667 l 147 667 b 42 590 146 611 108 593 l 42 483 b 276 681 197 488 276 544 l 276 875 l 42 875 z "},"(":{"ha":479,"x_min":0,"x_max":0,"o":"m 63 400 b 261 -117 63 211 138 18 l 465 -117 b 278 400 321 49 278 224 b 465 917 278 576 321 751 l 261 917 b 63 400 138 782 63 589 z "},")":{"ha":479,"x_min":0,"x_max":0,"o":"m 417 400 b 218 917 417 589 342 782 l 14 917 b 201 400 158 751 201 576 b 14 -117 201 224 158 49 l 218 -117 b 417 400 342 18 417 211 z "},"*":{"ha":525,"x_min":0,"x_max":0,"o":"m 14 644 l 151 600 l 67 482 l 178 403 l 263 519 l 349 403 l 458 483 l 374 600 l 511 646 l 468 775 l 331 731 l 331 875 l 194 875 l 194 729 l 56 775 z "},"+":{"ha":850,"x_min":0,"x_max":0,"o":"m 332 797 l 332 525 l 58 525 l 58 338 l 332 338 l 332 65 l 518 65 l 518 338 l 792 338 l 792 525 l 518 525 l 518 797 z "},",":{"ha":322,"x_min":0,"x_max":0,"o":"m 42 0 l 146 0 b 42 -85 146 -56 107 -83 l 42 -193 b 281 15 196 -189 281 -122 l 281 239 l 42 239 z "},"-":{"ha":500,"x_min":0,"x_max":0,"o":"m 64 258 l 436 258 l 436 454 l 64 454 z "},".":{"ha":322,"x_min":0,"x_max":0,"o":"m 42 0 l 281 0 l 281 239 l 42 239 z "},"/":{"ha":513,"x_min":0,"x_max":0,"o":"m -28 -115 l 179 -115 l 513 915 l 306 915 z "},":":{"ha":322,"x_min":0,"x_max":0,"o":"m 42 0 l 281 0 l 281 239 l 42 239 z m 42 369 l 281 369 l 281 608 l 42 608 z "},";":{"ha":322,"x_min":0,"x_max":0,"o":"m 42 0 l 146 0 b 42 -85 146 -56 107 -83 l 42 -193 b 281 15 196 -189 281 -122 l 281 239 l 42 239 z m 42 369 l 281 369 l 281 608 l 42 608 z "},"<":{"ha":657,"x_min":0,"x_max":0,"o":"m 43 300 l 601 64 l 601 278 l 213 428 l 601 578 l 601 792 l 43 556 z "},"=":{"ha":881,"x_min":0,"x_max":0,"o":"m 74 200 l 807 200 l 807 369 l 74 369 z m 74 500 l 807 500 l 807 669 l 74 669 z "},">":{"ha":657,"x_min":0,"x_max":0,"o":"m 614 556 l 56 792 l 56 578 l 443 428 l 56 278 l 56 64 l 614 300 z "},"?":{"ha":728,"x_min":0,"x_max":0,"o":"m 481 292 b 551 386 483 326 507 353 b 700 622 631 444 700 508 b 367 892 700 772 579 892 b 26 582 165 892 26 769 b 38 500 26 556 32 528 l 268 493 b 258 565 263 511 258 532 b 365 692 258 636 286 692 b 453 610 424 692 453 654 b 354 469 453 547 410 514 b 263 292 293 421 265 358 z m 251 0 l 490 0 l 490 239 l 251 239 z "},"@":{"ha":1081,"x_min":0,"x_max":0,"o":"m 789 154 b 754 222 756 154 742 174 l 832 533 l 658 533 l 640 469 b 503 544 621 514 575 544 b 260 247 357 544 260 410 b 442 47 260 119 332 47 b 588 136 513 47 554 76 b 750 47 611 83 660 47 b 1049 381 900 47 1049 153 b 593 788 1049 615 876 788 b 35 242 254 788 35 553 b 525 -199 35 -40 239 -199 b 846 -119 644 -199 753 -175 l 813 -19 b 526 -82 718 -65 632 -82 b 171 242 315 -82 171 26 b 593 668 171 503 335 668 b 919 381 810 668 919 561 b 789 154 919 224 872 154 z m 588 285 b 501 178 574 206 539 178 b 447 260 461 178 447 210 b 542 421 447 333 485 421 b 593 311 593 421 607 383 z "},"A":{"ha":961,"x_min":0,"x_max":0,"o":"m 349 875 l 0 0 l 238 0 l 303 169 l 644 169 l 710 0 l 961 0 l 613 875 z m 471 604 l 476 604 l 576 346 l 371 346 z "},"B":{"ha":879,"x_min":0,"x_max":0,"o":"m 846 240 b 664 454 846 365 767 433 b 819 633 757 469 819 536 b 493 875 819 781 718 875 l 67 875 l 67 0 l 522 0 b 846 240 726 0 846 89 z m 483 351 b 603 269 567 351 603 317 b 485 189 603 222 567 189 l 296 189 l 296 351 z m 296 688 l 463 688 b 575 606 543 688 575 651 b 463 528 575 564 543 528 l 296 528 z "},"C":{"ha":929,"x_min":0,"x_max":0,"o":"m 28 438 b 476 -17 28 168 221 -17 b 904 371 744 -17 888 153 l 678 381 b 475 193 664 283 611 193 b 271 438 346 193 271 289 b 475 682 271 586 346 682 b 678 494 611 682 664 592 l 904 503 b 476 892 888 721 744 892 b 28 438 221 892 28 707 z "},"D":{"ha":910,"x_min":0,"x_max":0,"o":"m 303 186 l 303 689 l 396 689 b 639 439 549 689 639 597 b 396 186 639 278 549 186 z m 67 0 l 413 0 b 882 438 703 0 882 164 b 413 875 882 711 703 875 l 67 875 z "},"E":{"ha":794,"x_min":0,"x_max":0,"o":"m 756 194 l 299 194 l 299 346 l 642 346 l 642 538 l 299 538 l 299 681 l 743 681 l 743 875 l 67 875 l 67 0 l 756 0 z "},"F":{"ha":763,"x_min":0,"x_max":0,"o":"m 303 0 l 303 321 l 622 321 l 622 513 l 303 513 l 303 681 l 728 681 l 728 875 l 67 875 l 67 0 z "},"G":{"ha":972,"x_min":0,"x_max":0,"o":"m 453 -17 b 707 97 565 -17 658 17 l 707 0 l 913 0 l 913 454 l 496 454 l 496 285 l 689 285 b 503 183 654 215 579 183 b 271 438 351 183 271 285 b 485 682 271 586 347 682 b 676 525 597 682 664 621 l 906 533 b 479 892 886 751 736 892 b 28 438 226 892 28 707 b 453 -17 28 167 211 -17 z "},"H":{"ha":954,"x_min":0,"x_max":0,"o":"m 303 0 l 303 346 l 651 346 l 651 0 l 888 0 l 888 875 l 651 875 l 651 538 l 303 538 l 303 875 l 67 875 l 67 0 z "},"I":{"ha":369,"x_min":0,"x_max":0,"o":"m 67 875 l 67 0 l 303 0 l 303 875 z "},"J":{"ha":782,"x_min":0,"x_max":0,"o":"m 492 875 l 492 339 b 371 183 492 232 456 183 b 239 354 285 183 244 243 l 11 346 b 372 -17 13 113 147 -17 b 728 318 581 -17 728 83 l 728 875 z "},"K":{"ha":890,"x_min":0,"x_max":0,"o":"m 904 0 l 550 503 l 888 875 l 617 875 l 303 521 l 303 875 l 67 875 l 67 0 l 303 0 l 303 265 l 379 349 l 622 0 z "},"L":{"ha":771,"x_min":0,"x_max":0,"o":"m 67 875 l 67 0 l 736 0 l 736 194 l 303 194 l 303 875 z "},"M":{"ha":1113,"x_min":0,"x_max":0,"o":"m 647 0 l 804 615 l 810 615 l 810 0 l 1046 0 l 1046 875 l 689 875 l 565 325 l 561 325 l 432 875 l 67 875 l 67 0 l 283 0 l 283 615 l 289 615 l 446 0 z "},"N":{"ha":917,"x_min":0,"x_max":0,"o":"m 292 875 l 67 875 l 67 0 l 283 0 l 283 518 l 661 0 l 850 0 l 850 875 l 633 875 l 633 390 z "},"O":{"ha":964,"x_min":0,"x_max":0,"o":"m 936 438 b 482 892 936 707 736 892 b 28 438 228 892 28 707 b 482 -17 28 168 228 -17 b 936 438 736 -17 936 168 z m 693 438 b 482 192 693 289 611 192 b 271 438 353 192 271 289 b 482 683 271 586 353 683 b 693 438 611 683 693 586 z "},"P":{"ha":824,"x_min":0,"x_max":0,"o":"m 301 463 l 301 686 l 440 686 b 586 574 546 686 586 647 b 440 463 586 500 546 463 z m 301 274 l 451 274 b 814 575 681 274 814 381 b 451 875 814 768 681 875 l 67 875 l 67 0 l 301 0 z "},"Q":{"ha":964,"x_min":0,"x_max":0,"o":"m 936 438 b 482 892 936 707 736 892 b 28 438 228 892 28 707 b 482 -17 28 168 228 -17 b 689 31 556 -17 626 0 l 763 -57 l 890 43 l 818 128 b 936 438 892 207 936 314 z m 696 438 b 671 300 696 383 688 338 l 590 397 l 467 294 l 550 194 b 482 188 529 189 507 188 b 271 438 353 188 271 289 b 482 683 271 586 353 683 b 696 438 611 683 696 586 z "},"R":{"ha":885,"x_min":0,"x_max":0,"o":"m 860 0 b 814 201 831 32 826 71 b 661 372 804 303 751 354 b 847 597 768 386 847 469 b 508 875 847 768 735 875 l 67 875 l 67 0 l 299 0 l 299 290 l 456 290 b 585 168 535 290 578 268 b 621 0 592 78 603 24 z m 299 472 l 299 686 l 467 686 b 617 578 567 686 617 649 b 467 472 617 497 567 472 z "},"S":{"ha":842,"x_min":0,"x_max":0,"o":"m 28 310 b 435 -17 28 99 197 -17 b 800 263 639 -17 800 76 b 533 533 800 406 717 501 l 368 563 b 281 628 314 572 281 588 b 403 707 281 676 325 707 b 565 575 493 707 558 665 l 782 579 b 406 892 778 774 647 892 b 49 607 188 892 49 785 b 292 347 49 454 149 374 l 451 319 b 569 247 518 307 569 299 b 435 169 569 199 517 169 b 244 317 338 169 253 207 z "},"T":{"ha":908,"x_min":0,"x_max":0,"o":"m 569 0 l 569 681 l 874 681 l 874 875 l 35 875 l 35 681 l 335 681 l 335 0 z "},"U":{"ha":917,"x_min":0,"x_max":0,"o":"m 458 -17 b 857 347 683 -17 857 92 l 857 875 l 621 875 l 621 386 b 458 182 621 253 581 182 b 296 386 338 182 296 253 l 296 875 l 61 875 l 61 347 b 458 -17 61 92 233 -17 z "},"V":{"ha":921,"x_min":0,"x_max":0,"o":"m 585 0 l 921 875 l 686 875 l 469 293 l 464 293 l 247 875 l 0 875 l 336 0 z "},"W":{"ha":1254,"x_min":0,"x_max":0,"o":"m 738 875 l 525 875 l 381 326 l 375 326 l 236 875 l 0 875 l 229 0 l 476 0 l 622 553 l 628 553 l 774 0 l 1025 0 l 1254 875 l 1026 875 l 888 326 l 882 326 z "},"X":{"ha":939,"x_min":0,"x_max":0,"o":"m 914 875 l 654 875 l 478 629 l 301 875 l 25 875 l 336 447 l 0 0 l 260 0 l 460 279 l 663 0 l 939 0 l 603 461 z "},"Y":{"ha":901,"x_min":0,"x_max":0,"o":"m 460 560 l 263 875 l 0 875 l 336 332 l 336 0 l 565 0 l 565 332 l 901 875 l 647 875 z "},"Z":{"ha":825,"x_min":0,"x_max":0,"o":"m 339 194 l 772 692 l 772 875 l 46 875 l 46 681 l 472 681 l 42 179 l 42 0 l 783 0 l 783 194 z "},"[":{"ha":450,"x_min":0,"x_max":0,"o":"m 297 763 l 422 763 l 422 917 l 97 917 l 97 -117 l 422 -117 l 422 38 l 297 38 z "},"\\":{"ha":513,"x_min":0,"x_max":0,"o":"m 207 915 l 0 915 l 333 -115 l 540 -115 z "},"]":{"ha":450,"x_min":0,"x_max":0,"o":"m 153 38 l 28 38 l 28 -117 l 353 -117 l 353 917 l 28 917 l 28 763 l 153 763 z "},"^":{"ha":567,"x_min":0,"x_max":0,"o":"m 164 875 l 14 583 l 215 583 l 283 735 l 351 583 l 553 583 l 403 875 z "},"_":{"ha":529,"x_min":0,"x_max":0,"o":"m 28 -210 l 501 -210 l 501 -39 l 28 -39 z "},"‘":{"ha":318,"x_min":0,"x_max":0,"o":"m 276 692 l 171 692 b 276 768 172 747 210 765 l 276 875 b 42 678 121 871 42 814 l 42 483 l 276 483 z "},"a":{"ha":732,"x_min":0,"x_max":0,"o":"m 419 258 b 304 131 419 178 368 131 b 242 183 267 131 242 151 b 328 251 242 224 274 240 l 419 268 z m 640 393 b 356 636 640 565 519 636 b 49 406 169 636 68 542 l 257 392 b 342 469 267 438 292 469 b 419 388 396 469 419 439 l 419 378 l 246 349 b 25 154 111 325 25 274 b 225 -14 25 49 104 -14 b 431 96 324 -14 394 24 b 588 -14 451 25 511 -14 b 728 26 651 -14 696 4 l 728 146 b 678 136 710 139 696 136 b 640 182 654 136 640 150 z "},"b":{"ha":793,"x_min":0,"x_max":0,"o":"m 286 314 b 411 461 286 403 335 461 b 539 310 499 461 539 399 b 411 157 539 219 499 157 b 286 306 335 157 286 215 z m 274 107 b 486 -17 308 32 386 -17 b 765 310 672 -17 765 126 b 490 636 765 492 672 636 b 286 513 386 636 317 586 l 286 875 l 61 875 l 61 0 l 235 0 z "},"c":{"ha":697,"x_min":0,"x_max":0,"o":"m 28 310 b 367 -17 28 113 171 -17 b 672 253 553 -17 657 103 l 488 267 b 369 153 472 190 435 153 b 254 310 301 153 254 199 b 369 467 254 421 301 467 b 488 354 435 467 472 431 l 672 367 b 367 636 657 515 553 636 b 28 310 171 636 28 506 z "},"d":{"ha":792,"x_min":0,"x_max":0,"o":"m 506 306 b 382 157 506 215 457 157 b 254 310 293 157 254 219 b 382 461 254 399 293 461 b 506 314 457 461 506 403 z m 506 0 l 731 0 l 731 875 l 506 875 l 506 513 b 303 636 476 586 406 636 b 28 310 119 636 28 492 b 303 -17 28 126 119 -17 b 506 106 406 -17 476 33 z "},"e":{"ha":713,"x_min":0,"x_max":0,"o":"m 497 221 b 376 151 476 172 438 151 b 247 264 308 151 253 188 l 682 264 l 682 326 b 365 636 682 494 572 636 b 28 300 172 636 28 496 b 368 -17 28 103 169 -17 b 678 204 532 -17 646 63 z m 250 372 b 363 475 258 431 290 475 b 468 372 429 475 465 428 z "},"f":{"ha":454,"x_min":0,"x_max":0,"o":"m 86 464 l 86 0 l 308 0 l 308 464 l 465 464 l 465 619 l 308 619 l 308 661 b 360 731 308 700 322 731 b 419 688 389 731 406 715 l 557 731 b 335 892 532 833 451 892 b 86 646 186 892 86 807 l 86 619 l -3 619 l -3 464 z "},"g":{"ha":718,"x_min":0,"x_max":0,"o":"m 646 424 b 626 503 646 453 639 479 b 717 513 657 510 690 513 l 717 682 b 543 586 649 682 581 638 b 344 636 490 618 419 636 b 46 424 171 636 46 556 b 135 267 46 356 79 303 b 29 136 68 242 29 196 b 118 15 29 83 63 33 b 0 -87 49 10 0 -33 b 329 -239 0 -204 153 -239 b 718 -14 531 -239 718 -168 b 507 164 718 90 647 164 l 250 164 b 197 201 213 164 197 181 b 210 231 197 214 201 224 b 344 213 250 218 294 213 b 646 424 519 213 646 293 z m 185 -65 b 226 -28 185 -42 201 -28 l 454 -28 b 511 -64 492 -28 511 -37 b 331 -122 511 -101 435 -122 b 185 -65 247 -122 185 -110 z m 413 424 b 347 333 413 368 385 333 b 282 424 310 333 282 368 b 347 513 282 478 310 513 b 413 424 385 513 413 478 z "},"h":{"ha":764,"x_min":0,"x_max":0,"o":"m 286 304 b 393 458 286 397 317 458 b 485 329 461 458 485 414 l 485 0 l 710 0 l 710 389 b 486 636 710 518 656 636 b 286 526 393 636 319 594 l 286 875 l 61 875 l 61 0 l 286 0 z "},"i":{"ha":347,"x_min":0,"x_max":0,"o":"m 61 619 l 61 0 l 286 0 l 286 619 z m 60 678 l 288 678 l 288 875 l 60 875 z "},"j":{"ha":347,"x_min":0,"x_max":0,"o":"m 286 619 l 61 619 l 61 -10 b 1 -85 61 -62 40 -85 b -89 -58 -28 -85 -57 -78 l -124 -194 b 54 -239 -83 -224 -15 -239 b 286 -21 197 -239 286 -174 z m 60 678 l 288 678 l 288 875 l 60 875 z "},"k":{"ha":760,"x_min":0,"x_max":0,"o":"m 286 196 l 340 251 l 518 0 l 771 0 l 507 376 l 763 619 l 499 619 l 286 406 l 286 875 l 61 875 l 61 0 l 286 0 z "},"l":{"ha":347,"x_min":0,"x_max":0,"o":"m 61 875 l 61 0 l 286 0 l 286 875 z "},"m":{"ha":1158,"x_min":0,"x_max":0,"o":"m 672 514 b 479 636 646 586 589 636 b 286 526 386 636 319 594 l 286 619 l 61 619 l 61 0 l 286 0 l 286 304 b 386 458 286 397 313 458 b 471 329 454 458 471 414 l 471 0 l 696 0 l 696 304 b 796 458 696 397 721 458 b 879 329 864 458 879 414 l 879 0 l 1104 0 l 1104 389 b 883 636 1104 518 1054 636 b 672 514 779 636 706 583 z "},"n":{"ha":764,"x_min":0,"x_max":0,"o":"m 286 304 b 393 458 286 397 317 458 b 485 329 461 458 485 414 l 485 0 l 710 0 l 710 389 b 486 636 710 518 656 636 b 286 526 393 636 319 594 l 286 619 l 61 619 l 61 0 l 286 0 z "},"o":{"ha":733,"x_min":0,"x_max":0,"o":"m 254 310 b 367 467 254 403 288 467 b 479 310 444 467 479 403 b 367 153 479 217 444 153 b 254 310 288 153 254 217 z m 706 310 b 367 636 706 501 568 636 b 28 310 164 636 28 501 b 367 -17 28 117 164 -17 b 706 310 568 -17 706 117 z "},"p":{"ha":793,"x_min":0,"x_max":0,"o":"m 286 314 b 411 461 286 403 335 461 b 539 310 499 461 539 399 b 411 157 539 219 499 157 b 286 306 335 157 286 215 z m 286 106 b 490 -17 317 33 386 -17 b 765 310 672 -17 765 126 b 490 636 765 492 672 636 b 286 513 386 636 317 586 l 286 619 l 61 619 l 61 -222 l 286 -222 z "},"q":{"ha":792,"x_min":0,"x_max":0,"o":"m 506 306 b 382 157 506 215 457 157 b 254 310 293 157 254 219 b 382 461 254 399 293 461 b 506 314 457 461 506 403 z m 506 -222 l 731 -222 l 731 619 l 506 619 l 506 513 b 303 636 476 586 406 636 b 28 310 119 636 28 492 b 303 -17 28 126 119 -17 b 506 106 406 -17 476 33 z "},"r":{"ha":550,"x_min":0,"x_max":0,"o":"m 542 613 b 456 636 526 625 493 636 b 286 510 374 636 308 579 l 286 619 l 61 619 l 61 0 l 286 0 l 286 283 b 421 426 286 388 338 426 b 528 400 464 426 497 418 z "},"s":{"ha":640,"x_min":0,"x_max":0,"o":"m 17 201 b 328 -17 29 51 157 -17 b 615 189 504 -17 615 58 b 396 394 615 310 535 372 l 275 415 b 238 450 254 418 238 429 b 306 494 238 478 263 494 b 422 422 375 494 414 467 l 607 428 b 310 636 594 557 489 636 b 29 426 136 636 29 549 b 258 228 29 300 108 251 l 350 214 b 407 167 393 207 407 190 b 331 124 407 142 381 124 b 213 204 263 124 221 153 z "},"t":{"ha":497,"x_min":0,"x_max":0,"o":"m 83 172 b 286 -17 83 26 182 -17 b 472 39 371 -17 425 4 l 472 185 b 376 164 435 169 404 164 b 306 238 331 164 306 185 l 306 464 l 467 464 l 467 619 l 306 619 l 306 790 l 164 790 l 143 710 b 46 610 128 653 108 619 l 0 603 l 0 464 l 83 464 z "},"u":{"ha":756,"x_min":0,"x_max":0,"o":"m 469 315 b 371 160 469 221 442 160 b 279 289 303 160 279 206 l 279 619 l 54 619 l 54 229 b 275 -17 54 100 106 -17 b 469 93 368 -17 436 24 l 469 0 l 694 0 l 694 619 l 469 619 z "},"v":{"ha":724,"x_min":0,"x_max":0,"o":"m 496 0 l 726 619 l 508 619 l 374 235 l 368 235 l 233 619 l -3 619 l 228 0 z "},"w":{"ha":1014,"x_min":0,"x_max":0,"o":"m 607 619 l 428 619 l 338 268 l 332 268 l 221 619 l -3 619 l 193 0 l 414 0 l 504 350 l 510 350 l 600 0 l 821 0 l 1017 619 l 814 619 l 703 268 l 697 268 z "},"x":{"ha":722,"x_min":0,"x_max":0,"o":"m 706 619 l 474 619 l 368 472 l 265 619 l 17 619 l 240 315 l -3 0 l 229 0 l 353 168 l 476 0 l 725 0 l 481 325 z "},"y":{"ha":735,"x_min":0,"x_max":0,"o":"m 382 -222 l 738 619 l 517 619 l 376 257 l 371 257 l 233 619 l -3 619 l 250 -8 l 161 -222 z "},"z":{"ha":628,"x_min":0,"x_max":0,"o":"m 311 457 l 36 154 l 36 0 l 592 0 l 592 163 l 306 163 l 585 467 l 585 619 l 42 619 l 42 457 z "},"{":{"ha":476,"x_min":0,"x_max":0,"o":"m 49 324 l 83 324 b 149 222 140 324 149 299 l 149 75 b 333 -117 149 -54 222 -117 l 449 -117 l 449 38 l 393 38 b 350 89 351 38 350 63 l 350 235 b 231 400 350 336 318 386 b 350 564 318 414 350 464 l 350 711 b 393 763 350 738 351 763 l 449 763 l 449 917 l 333 917 b 149 725 222 917 149 854 l 149 578 b 83 476 149 501 140 476 l 49 476 z "},"|":{"ha":329,"x_min":0,"x_max":0,"o":"m 67 -115 l 263 -115 l 263 915 l 67 915 z "},"}":{"ha":476,"x_min":0,"x_max":0,"o":"m 428 476 l 393 476 b 328 578 336 476 328 501 l 328 725 b 143 917 328 854 254 917 l 28 917 l 28 763 l 83 763 b 126 711 125 763 126 738 l 126 564 b 246 400 126 464 158 414 b 126 235 158 386 126 336 l 126 89 b 83 38 126 63 125 38 l 28 38 l 28 -117 l 143 -117 b 328 75 254 -117 328 -54 l 328 222 b 393 324 328 299 336 324 l 428 324 z "},"~":{"ha":561,"x_min":0,"x_max":0,"o":"m 163 283 b 213 335 167 322 189 335 b 375 278 264 335 306 278 b 513 500 465 278 513 369 l 399 500 b 349 447 394 460 372 447 b 186 504 297 447 256 504 b 49 283 96 504 49 413 z "},"¡":{"ha":322,"x_min":0,"x_max":0,"o":"m 42 481 l 281 481 l 281 719 l 42 719 z m 281 -156 l 281 69 l 233 428 l 89 428 l 42 69 l 42 -156 z "},"¢":{"ha":722,"x_min":0,"x_max":0,"o":"m 328 -129 l 444 -129 l 444 -10 b 697 253 594 15 683 122 l 515 264 b 444 158 504 211 479 178 l 444 461 b 515 357 479 443 504 408 l 697 367 b 444 629 683 494 594 603 l 444 747 l 328 747 l 328 633 b 28 310 149 617 28 492 b 328 -14 28 126 149 3 z m 246 310 b 328 469 246 403 278 453 l 328 150 b 246 310 278 168 246 218 z "},"£":{"ha":856,"x_min":0,"x_max":0,"o":"m 385 611 b 474 707 385 671 417 707 b 592 557 546 707 588 650 l 789 567 b 454 892 789 763 674 892 b 136 618 272 892 136 786 b 168 494 136 567 149 528 l 78 494 l 78 368 l 247 368 b 267 306 256 349 263 329 b 190 318 242 313 217 318 b 14 156 88 318 14 254 b 192 -17 14 50 88 -17 b 376 58 265 -17 329 10 b 608 -17 436 18 511 -17 b 824 297 757 -17 846 71 l 663 306 b 551 190 663 215 635 190 b 456 211 517 190 486 199 b 467 308 463 242 467 274 b 461 368 467 331 464 350 l 576 368 l 576 494 l 413 494 b 385 611 397 528 385 564 z m 194 115 b 150 153 171 115 150 129 b 190 190 150 178 165 190 b 253 160 208 190 229 178 b 194 115 240 131 221 115 z "},"⁄":{"ha":696,"x_min":0,"x_max":0,"o":"m 688 875 l 536 875 l 11 0 l 163 0 z "},"¥":{"ha":901,"x_min":0,"x_max":0,"o":"m 94 346 l 336 346 l 336 278 l 94 278 l 94 140 l 336 140 l 336 0 l 565 0 l 565 140 l 807 140 l 807 278 l 565 278 l 565 346 l 807 346 l 807 483 l 653 483 l 901 875 l 647 875 l 460 560 l 263 875 l 0 875 l 249 483 l 94 483 z "},"ƒ":{"ha":635,"x_min":0,"x_max":0,"o":"m 465 600 b 574 721 481 674 504 721 b 607 718 583 721 594 719 l 607 881 b 517 892 576 888 546 892 b 253 671 388 892 283 815 l 221 522 l 83 522 l 83 360 l 188 360 l 133 101 b 33 -19 118 26 101 -19 b 0 -17 24 -19 13 -19 l 0 -179 b 76 -186 26 -183 53 -186 b 346 31 213 -186 314 -119 l 414 360 l 568 360 l 568 522 l 449 522 z "},"§":{"ha":722,"x_min":0,"x_max":0,"o":"m 694 343 b 490 582 694 464 621 531 l 347 638 b 290 694 303 656 290 674 b 358 750 290 731 322 750 b 475 678 428 750 467 722 l 660 683 b 363 892 647 813 542 892 b 82 682 189 892 82 804 b 114 579 82 640 93 607 b 28 418 64 542 28 481 b 232 179 28 297 101 231 l 375 124 b 432 67 419 106 432 88 b 364 11 432 31 400 11 b 247 83 294 11 256 39 l 63 78 b 360 -131 75 -51 181 -131 b 640 79 533 -131 640 -43 b 608 181 640 121 628 154 b 694 343 657 219 694 279 z m 267 474 l 440 392 b 499 321 488 369 499 354 b 479 276 499 301 489 286 b 456 288 471 279 463 283 l 282 369 b 224 440 235 392 224 407 b 243 485 224 460 233 475 b 267 474 250 481 258 476 z "},"'":{"ha":276,"x_min":0,"x_max":0,"o":"m 42 514 l 235 514 l 235 875 l 42 875 z "},"“":{"ha":614,"x_min":0,"x_max":0,"o":"m 276 692 l 171 692 b 276 768 172 747 210 765 l 276 875 b 42 678 121 871 42 814 l 42 483 l 276 483 z m 572 692 l 468 692 b 572 768 468 747 507 765 l 572 875 b 339 678 418 871 339 814 l 339 483 l 572 483 z "},"«":{"ha":672,"x_min":0,"x_max":0,"o":"m 42 214 l 310 40 l 310 229 l 176 314 l 310 399 l 310 588 l 42 414 z m 363 214 l 631 40 l 631 229 l 497 314 l 631 399 l 631 588 l 363 414 z "},"‹":{"ha":351,"x_min":0,"x_max":0,"o":"m 42 214 l 310 40 l 310 229 l 176 314 l 310 399 l 310 588 l 42 414 z "},"›":{"ha":351,"x_min":0,"x_max":0,"o":"m 310 414 l 42 588 l 42 399 l 175 314 l 42 229 l 42 40 l 310 214 z "},"ﬁ":{"ha":779,"x_min":0,"x_max":0,"o":"m 86 464 l 86 0 l 308 0 l 308 464 l 493 464 l 493 0 l 718 0 l 718 619 l 308 619 l 308 629 b 400 731 308 694 344 731 b 483 681 446 731 469 708 l 647 733 b 383 892 604 835 526 892 b 86 628 208 892 86 794 l 86 619 l -3 619 l -3 464 z "},"ﬂ":{"ha":779,"x_min":0,"x_max":0,"o":"m 449 863 b 311 892 411 882 364 892 b 86 646 167 892 86 807 l 86 619 l -3 619 l -3 464 l 86 464 l 86 0 l 308 0 l 308 464 l 428 464 l 428 619 l 308 619 l 308 654 b 365 722 308 693 328 722 b 426 706 390 722 407 717 z m 493 875 l 493 0 l 718 0 l 718 875 z "},"–":{"ha":694,"x_min":0,"x_max":0,"o":"m 64 279 l 628 279 l 628 428 l 64 428 z "},"†":{"ha":478,"x_min":0,"x_max":0,"o":"m 42 622 l 169 622 l 169 371 l 308 371 l 308 622 l 436 622 l 436 757 l 308 757 l 308 875 l 169 875 l 169 757 l 42 757 z "},"‡":{"ha":492,"x_min":0,"x_max":0,"o":"m 49 461 l 181 461 l 181 371 l 311 371 l 311 461 l 443 461 l 443 582 l 311 582 l 311 664 l 443 664 l 443 785 l 311 785 l 311 875 l 181 875 l 181 785 l 49 785 l 49 664 l 181 664 l 181 582 l 49 582 z "},"·":{"ha":367,"x_min":0,"x_max":0,"o":"m 64 236 l 303 236 l 303 475 l 64 475 z "},"¶":{"ha":807,"x_min":0,"x_max":0,"o":"m 368 0 l 513 0 l 513 732 l 594 732 l 594 0 l 739 0 l 739 875 l 368 875 b 28 604 150 875 28 771 b 368 332 28 436 150 332 z "},"•":{"ha":556,"x_min":0,"x_max":0,"o":"m 514 360 b 278 596 514 500 408 596 b 42 360 147 596 42 500 b 278 124 42 219 147 124 b 514 360 408 124 514 219 z "},"‚":{"ha":318,"x_min":0,"x_max":0,"o":"m 42 0 l 147 0 b 42 -76 146 -56 108 -74 l 42 -183 b 276 14 197 -179 276 -122 l 276 208 l 42 208 z "},"„":{"ha":614,"x_min":0,"x_max":0,"o":"m 339 0 l 444 0 b 339 -76 443 -56 406 -74 l 339 -183 b 572 14 493 -179 572 -122 l 572 208 l 339 208 z m 42 0 l 147 0 b 42 -76 146 -56 108 -74 l 42 -183 b 276 14 197 -179 276 -122 l 276 208 l 42 208 z "},"”":{"ha":614,"x_min":0,"x_max":0,"o":"m 339 667 l 444 667 b 339 590 443 611 406 593 l 339 483 b 572 681 493 488 572 544 l 572 875 l 339 875 z m 42 667 l 147 667 b 42 590 146 611 108 593 l 42 483 b 276 681 197 488 276 544 l 276 875 l 42 875 z "},"»":{"ha":672,"x_min":0,"x_max":0,"o":"m 310 414 l 42 588 l 42 399 l 175 314 l 42 229 l 42 40 l 310 214 z m 631 414 l 363 588 l 363 399 l 496 314 l 363 229 l 363 40 l 631 214 z "},"…":{"ha":967,"x_min":0,"x_max":0,"o":"m 42 0 l 281 0 l 281 239 l 42 239 z m 364 0 l 603 0 l 603 239 l 364 239 z m 686 0 l 925 0 l 925 239 l 686 239 z "},"‰":{"ha":1574,"x_min":0,"x_max":0,"o":"m 179 647 b 256 768 179 733 206 768 b 332 647 306 768 332 733 b 256 526 332 561 306 526 b 179 647 206 526 179 561 z m 28 647 b 256 403 28 494 135 403 b 483 647 376 403 483 494 b 256 892 483 800 376 892 b 28 647 135 892 28 800 z m 925 228 b 849 107 925 142 899 107 b 772 228 799 107 772 142 b 849 349 772 314 799 349 b 925 228 899 349 925 314 z m 1076 228 b 849 472 1076 381 969 472 b 621 228 728 472 621 381 b 849 -17 621 75 728 -17 b 1076 228 969 -17 1076 75 z m 1419 228 b 1343 107 1419 142 1393 107 b 1267 228 1293 107 1267 142 b 1343 349 1267 314 1293 349 b 1419 228 1393 349 1419 314 z m 1571 228 b 1343 472 1571 381 1464 472 b 1115 228 1222 472 1115 381 b 1343 -17 1115 75 1222 -17 b 1571 228 1464 -17 1571 75 z m 860 875 l 706 875 l 244 0 l 399 0 z "},"¿":{"ha":728,"x_min":0,"x_max":0,"o":"m 246 428 b 175 333 243 393 219 367 b 26 97 96 275 26 211 b 360 -172 26 -53 147 -172 b 700 138 561 -172 700 -50 b 689 219 700 164 694 192 l 458 226 b 468 154 464 208 468 188 b 361 28 468 83 440 28 b 274 110 303 28 274 65 b 372 250 274 172 317 206 b 464 428 433 299 461 361 z m 475 719 l 236 719 l 236 481 l 475 481 z "},"`":{"ha":694,"x_min":0,"x_max":0,"o":"m 494 678 l 419 875 l 199 875 l 333 678 z "},"´":{"ha":694,"x_min":0,"x_max":0,"o":"m 360 678 l 494 875 l 274 875 l 199 678 z "},"ˆ":{"ha":694,"x_min":0,"x_max":0,"o":"m 242 875 l 122 678 l 264 678 l 347 754 l 431 678 l 572 678 l 453 875 z "},"˜":{"ha":694,"x_min":0,"x_max":0,"o":"m 240 678 b 285 725 243 714 264 725 b 433 674 332 725 369 674 b 558 875 515 674 558 757 l 454 875 b 410 828 451 839 431 828 b 261 879 363 828 325 879 b 136 678 179 879 136 796 z "},"¯":{"ha":694,"x_min":0,"x_max":0,"o":"m 156 683 l 538 683 l 538 833 l 156 833 z "},"˘":{"ha":694,"x_min":0,"x_max":0,"o":"m 347 678 b 544 875 471 678 544 751 l 418 875 b 347 811 418 831 388 811 b 276 875 307 811 276 831 l 150 875 b 347 678 150 751 224 678 z "},"˙":{"ha":694,"x_min":0,"x_max":0,"o":"m 233 678 l 461 678 l 461 875 l 233 875 z "},"¨":{"ha":694,"x_min":0,"x_max":0,"o":"m 118 678 l 315 678 l 315 875 l 118 875 z m 379 678 l 576 678 l 576 875 l 379 875 z "},"˚":{"ha":694,"x_min":0,"x_max":0,"o":"m 300 801 b 347 849 300 829 315 849 b 394 801 379 849 394 829 b 347 754 394 774 379 754 b 300 801 315 754 300 774 z m 211 801 b 347 671 211 726 265 671 b 483 801 429 671 483 726 b 347 932 483 876 429 932 b 211 801 265 932 211 876 z "},"¸":{"ha":1157,"x_min":0,"x_max":0,"o":"m 740 -142 b 581 -50 740 -65 663 -35 l 632 15 l 560 15 l 472 -110 l 515 -125 b 611 -144 551 -110 611 -107 b 556 -174 611 -167 590 -174 b 439 -143 508 -174 469 -161 l 415 -197 b 574 -243 446 -222 504 -243 b 740 -142 657 -243 740 -217 z "},"˝":{"ha":694,"x_min":0,"x_max":0,"o":"m 243 678 l 358 875 l 153 875 l 97 678 z m 482 678 l 597 875 l 392 875 l 336 678 z "},"˛":{"ha":694,"x_min":0,"x_max":0,"o":"m 325 17 b 219 -143 258 -28 219 -82 b 351 -243 219 -203 268 -243 b 464 -210 410 -243 440 -225 l 464 -110 b 403 -126 443 -119 425 -126 b 365 -90 381 -126 365 -114 b 453 17 365 -58 393 -37 z "},"ˇ":{"ha":694,"x_min":0,"x_max":0,"o":"m 453 678 l 572 875 l 431 875 l 347 799 l 264 875 l 122 875 l 242 678 z "},"—":{"ha":1389,"x_min":0,"x_max":0,"o":"m 64 279 l 1325 279 l 1325 428 l 64 428 z "},"Æ":{"ha":1382,"x_min":0,"x_max":0,"o":"m 507 875 l 0 0 l 247 0 l 358 197 l 654 197 l 654 0 l 1343 0 l 1343 194 l 886 194 l 886 346 l 1229 346 l 1229 538 l 886 538 l 886 681 l 1331 681 l 1331 875 z m 649 711 l 654 711 l 654 374 l 457 374 z "},"ª":{"ha":600,"x_min":0,"x_max":0,"o":"m 339 594 b 251 494 339 532 300 494 b 203 535 222 494 203 510 b 268 588 203 565 228 578 l 339 603 z m 524 703 b 292 899 524 842 425 899 b 42 711 140 899 58 822 l 215 700 b 281 760 224 736 242 760 b 339 697 322 760 339 736 l 339 689 l 200 664 b 24 510 92 646 24 607 b 185 375 24 425 88 375 b 349 463 264 375 319 404 b 478 375 367 406 415 375 b 593 407 529 375 567 389 l 593 507 b 553 499 578 501 568 499 b 524 536 535 499 524 510 z "},"Ł":{"ha":799,"x_min":0,"x_max":0,"o":"m 94 875 l 94 485 l 21 458 l 21 274 l 94 301 l 94 0 l 764 0 l 764 194 l 331 194 l 331 383 l 557 468 l 557 653 l 331 568 l 331 875 z "},"Ø":{"ha":964,"x_min":0,"x_max":0,"o":"m 936 438 b 804 765 936 572 886 686 l 874 856 l 775 926 l 706 838 b 482 892 640 872 564 892 b 28 438 228 892 28 707 b 150 118 28 307 74 197 l 75 19 l 174 -51 l 247 43 b 482 -17 315 4 396 -17 b 936 438 736 -17 936 168 z m 693 438 b 482 192 693 289 611 192 b 379 215 443 192 408 200 l 661 579 b 693 438 682 540 693 493 z m 271 438 b 482 683 271 586 353 683 b 572 664 515 683 546 676 l 297 307 b 271 438 281 343 271 388 z "},"Œ":{"ha":1335,"x_min":0,"x_max":0,"o":"m 1296 194 l 839 194 l 839 346 l 1182 346 l 1182 538 l 839 538 l 839 681 l 1283 681 l 1283 875 l 497 875 b 28 438 207 875 28 711 b 497 0 28 164 207 0 l 1296 0 z m 607 689 l 607 186 l 514 186 b 271 436 361 186 271 278 b 514 689 271 597 361 689 z "},"º":{"ha":600,"x_min":0,"x_max":0,"o":"m 214 636 b 300 758 214 708 239 758 b 386 636 360 758 386 708 b 300 514 386 563 360 514 b 214 636 239 514 214 563 z m 574 636 b 300 899 574 790 464 899 b 26 636 136 899 26 790 b 300 372 26 481 136 372 b 574 636 464 372 574 481 z "},"æ":{"ha":1085,"x_min":0,"x_max":0,"o":"m 333 636 b 53 411 188 636 72 547 l 247 400 b 343 469 258 440 293 469 b 431 382 397 469 431 436 l 431 372 l 332 372 b 25 168 144 372 25 308 b 246 -14 25 67 104 -14 b 492 99 363 -14 449 33 b 740 -17 546 24 624 -17 b 1050 204 904 -17 1018 63 l 869 221 b 749 151 849 172 810 151 b 615 267 689 151 629 179 l 1054 267 l 1054 326 b 738 636 1054 494 944 636 b 532 557 660 636 575 604 b 333 636 486 613 419 636 z m 313 131 b 242 192 267 131 242 156 b 344 267 242 242 279 267 l 431 267 l 431 250 b 313 131 431 175 378 131 z m 735 475 b 840 372 801 475 838 428 l 618 372 b 735 475 633 443 676 475 z "},"ı":{"ha":347,"x_min":0,"x_max":0,"o":"m 61 619 l 61 0 l 286 0 l 286 619 z "},"ł":{"ha":403,"x_min":0,"x_max":0,"o":"m 89 875 l 89 515 l 7 481 l 7 318 l 89 353 l 89 0 l 314 0 l 314 439 l 396 474 l 396 636 l 314 601 l 314 875 z "},"ø":{"ha":733,"x_min":0,"x_max":0,"o":"m 706 310 b 619 536 706 401 674 479 l 678 607 l 600 667 l 540 596 b 367 636 492 622 432 636 b 28 310 164 636 28 501 b 113 82 28 217 58 139 l 56 13 l 133 -49 l 192 22 b 367 -17 242 -3 300 -17 b 706 310 568 -17 706 117 z m 238 310 b 367 467 238 403 281 467 b 424 454 388 467 407 463 l 246 242 b 238 310 240 263 238 285 z m 496 310 b 367 153 496 217 451 153 b 310 164 344 153 325 156 l 486 376 b 496 310 493 357 496 335 z "},"œ":{"ha":1160,"x_min":0,"x_max":0,"o":"m 367 636 b 28 310 164 636 28 501 b 367 -17 28 117 164 -17 b 588 64 468 -17 535 17 b 815 -17 644 14 722 -17 b 1125 204 979 -17 1093 63 l 944 221 b 824 151 924 172 885 151 b 694 267 756 151 700 190 l 1129 267 l 1129 326 b 813 636 1129 494 1019 636 b 593 551 726 636 651 603 b 367 636 535 603 458 636 z m 254 310 b 367 467 254 403 288 467 b 479 310 444 467 479 403 b 367 153 479 217 444 153 b 254 310 288 153 254 217 z m 697 372 b 810 475 706 431 738 475 b 915 372 876 475 913 428 z "},"ß":{"ha":753,"x_min":0,"x_max":0,"o":"m 686 658 b 389 892 686 801 567 892 b 61 571 189 892 61 769 l 61 0 l 286 0 l 286 565 b 393 731 286 669 317 731 b 476 647 449 731 476 694 b 396 558 476 585 446 558 b 357 560 381 558 369 558 l 357 389 b 410 392 374 390 388 392 b 511 283 472 392 511 356 b 411 169 511 211 472 169 b 351 179 390 169 369 174 l 351 11 b 460 -6 378 3 408 -6 b 718 257 610 -6 718 89 b 582 488 718 390 660 458 b 686 658 651 518 686 576 z "},"¹":{"ha":344,"x_min":0,"x_max":0,"o":"m 13 675 l 118 675 l 118 314 l 290 314 l 290 875 l 153 875 b 13 790 132 817 90 790 z "},"™":{"ha":946,"x_min":0,"x_max":0,"o":"m 264 514 l 264 771 l 383 771 l 383 875 l 28 875 l 28 771 l 144 771 l 144 514 z m 663 514 l 714 732 l 717 732 l 717 514 l 835 514 l 835 875 l 675 875 l 631 661 l 628 661 l 581 875 l 415 875 l 415 514 l 526 514 l 526 732 l 529 732 l 581 514 z "},"Ð":{"ha":938,"x_min":0,"x_max":0,"o":"m 21 346 l 94 346 l 94 0 l 440 0 b 910 438 731 0 910 164 b 440 875 910 711 731 875 l 94 875 l 94 538 l 21 538 z m 331 186 l 331 346 l 515 346 l 515 538 l 331 538 l 331 689 l 424 689 b 667 439 576 689 667 597 b 424 186 667 278 576 186 z "},"½":{"ha":1126,"x_min":0,"x_max":0,"o":"m 21 675 l 126 675 l 126 314 l 299 314 l 299 875 l 161 875 b 21 790 140 817 99 790 z m 840 875 l 689 875 l 164 0 l 315 0 z m 892 143 l 950 186 b 1082 389 1043 257 1082 293 b 861 572 1082 494 999 572 b 638 371 729 572 638 492 b 644 318 638 353 642 336 l 813 313 b 807 358 810 324 807 335 b 856 425 807 393 817 425 b 901 378 890 425 901 404 b 799 244 901 332 883 311 l 644 128 l 644 0 l 1085 0 l 1085 143 z "},"±":{"ha":874,"x_min":0,"x_max":0,"o":"m 343 856 l 343 663 l 88 663 l 88 476 l 343 476 l 343 283 l 529 283 l 529 476 l 786 476 l 786 663 l 529 663 l 529 856 z m 88 22 l 786 22 l 786 207 l 88 207 z "},"Þ":{"ha":824,"x_min":0,"x_max":0,"o":"m 301 340 l 301 564 l 440 564 b 586 451 546 564 586 525 b 440 340 586 378 546 340 z m 301 151 l 451 151 b 814 453 681 151 814 258 b 451 753 814 646 681 753 l 301 753 l 301 875 l 67 875 l 67 0 l 301 0 z "},"¼":{"ha":1104,"x_min":0,"x_max":0,"o":"m 21 675 l 126 675 l 126 314 l 299 314 l 299 875 l 161 875 b 21 790 140 817 99 790 z m 1011 561 l 804 561 l 574 253 l 574 110 l 842 110 l 842 0 l 1011 0 l 1011 110 l 1076 110 l 1076 242 l 1011 242 z m 842 411 l 842 242 l 721 242 z m 840 875 l 689 875 l 164 0 l 315 0 z "},"÷":{"ha":850,"x_min":0,"x_max":0,"o":"m 58 338 l 792 338 l 792 525 l 58 525 z m 306 614 l 546 614 l 546 840 l 306 840 z m 306 22 l 546 22 l 546 247 l 306 247 z "},"°":{"ha":514,"x_min":0,"x_max":0,"o":"m 172 685 b 257 769 172 732 204 769 b 342 685 310 769 342 732 b 257 600 342 638 310 600 b 172 685 204 600 172 638 z m 42 685 b 257 478 42 568 135 478 b 472 685 379 478 472 568 b 257 892 472 801 379 892 b 42 685 135 892 42 801 z "},"þ":{"ha":793,"x_min":0,"x_max":0,"o":"m 286 314 b 411 461 286 403 335 461 b 539 310 499 461 539 399 b 411 157 539 219 499 157 b 286 306 335 157 286 215 z m 286 106 b 490 -17 317 33 386 -17 b 765 310 672 -17 765 126 b 490 636 765 492 672 636 b 286 513 386 636 317 586 l 286 875 l 61 875 l 61 -222 l 286 -222 z "},"¾":{"ha":1222,"x_min":0,"x_max":0,"o":"m 1129 561 l 922 561 l 692 253 l 692 110 l 960 110 l 960 0 l 1129 0 l 1129 110 l 1194 110 l 1194 242 l 1129 242 z m 960 411 l 960 242 l 839 242 z m 303 482 b 254 443 303 456 278 443 b 186 503 214 443 188 460 l 17 508 b 254 303 17 383 104 303 b 479 468 388 303 479 360 b 367 599 479 536 442 585 b 464 715 418 604 464 649 b 251 886 464 817 386 886 b 22 675 107 886 22 790 l 188 668 b 246 746 188 710 206 746 b 293 697 278 746 293 728 b 243 649 293 667 269 649 b 204 650 233 649 213 649 l 204 529 b 242 531 219 532 235 531 b 303 482 276 531 303 515 z m 958 875 l 807 875 l 282 0 l 433 0 z "},"²":{"ha":479,"x_min":0,"x_max":0,"o":"m 274 457 l 332 500 b 464 703 425 571 464 607 b 243 886 464 808 381 886 b 19 685 111 886 19 806 b 26 632 19 667 24 650 l 194 626 b 189 672 192 638 189 649 b 238 739 189 707 199 739 b 283 692 272 739 283 718 b 181 558 283 646 265 625 l 26 442 l 26 314 l 467 314 l 467 457 z "},"®":{"ha":572,"x_min":0,"x_max":0,"o":"m 424 492 b 408 556 414 503 413 514 b 360 608 406 588 389 603 b 419 681 394 614 419 640 b 313 768 419 735 383 768 l 172 768 l 172 492 l 254 492 l 254 576 l 286 576 b 328 539 313 576 325 571 b 340 492 331 508 333 500 z m 254 640 l 254 703 l 289 703 b 333 671 318 703 333 693 b 289 640 333 649 318 640 z m 544 631 b 286 892 544 782 428 892 b 28 631 144 892 28 782 b 286 369 28 479 144 369 b 544 631 428 369 544 479 z m 497 631 b 286 414 497 504 404 414 b 75 631 168 414 75 504 b 286 847 75 757 168 847 b 497 631 404 847 497 757 z "},"−":{"ha":850,"x_min":0,"x_max":0,"o":"m 58 338 l 792 338 l 792 525 l 58 525 z "},"ð":{"ha":729,"x_min":0,"x_max":0,"o":"m 142 604 l 346 667 b 471 533 407 617 454 569 b 326 586 433 569 382 586 b 28 296 174 586 28 490 b 367 -17 28 97 164 -17 b 701 332 568 -17 701 114 b 540 726 701 478 643 614 l 619 751 l 586 846 l 456 806 b 321 892 415 838 369 865 l 119 822 b 246 740 161 797 204 769 l 108 699 z m 367 157 b 254 294 296 157 254 217 b 367 433 254 374 296 433 b 479 294 438 433 479 374 b 367 157 479 217 438 157 z "},"×":{"ha":738,"x_min":0,"x_max":0,"o":"m 242 429 l 44 233 l 172 107 l 368 301 l 565 107 l 693 233 l 496 429 l 693 625 l 565 753 l 368 556 l 172 753 l 44 625 z "},"©":{"ha":1006,"x_min":0,"x_max":0,"o":"m 49 438 b 503 -17 49 174 253 -17 b 957 438 753 -17 957 174 b 503 892 957 701 753 892 b 49 438 253 892 49 701 z m 228 438 b 506 157 228 271 347 157 b 769 397 671 157 758 261 l 628 404 b 510 296 619 349 588 296 b 389 438 432 296 389 353 b 510 582 389 525 432 582 b 628 474 588 582 619 529 l 769 478 b 506 719 758 614 671 719 b 228 438 347 719 228 606 z m 118 438 b 503 825 118 661 292 825 b 888 438 714 825 888 661 b 503 50 888 214 714 50 b 118 438 292 50 118 214 z "},"Á":{"ha":961,"x_min":0,"x_max":0,"o":"m 349 875 l 0 0 l 238 0 l 303 169 l 644 169 l 710 0 l 961 0 l 613 875 z m 553 928 l 688 1125 l 467 1125 l 392 928 z m 471 604 l 476 604 l 576 346 l 371 346 z "},"Â":{"ha":961,"x_min":0,"x_max":0,"o":"m 349 875 l 0 0 l 238 0 l 303 169 l 644 169 l 710 0 l 961 0 l 613 875 z m 369 1125 l 250 928 l 392 928 l 475 1004 l 558 928 l 700 928 l 581 1125 z m 471 604 l 476 604 l 576 346 l 371 346 z "},"Ä":{"ha":961,"x_min":0,"x_max":0,"o":"m 349 875 l 0 0 l 238 0 l 303 169 l 644 169 l 710 0 l 961 0 l 613 875 z m 246 928 l 443 928 l 443 1125 l 246 1125 z m 507 928 l 704 928 l 704 1125 l 507 1125 z m 471 604 l 476 604 l 576 346 l 371 346 z "},"À":{"ha":961,"x_min":0,"x_max":0,"o":"m 349 875 l 0 0 l 238 0 l 303 169 l 644 169 l 710 0 l 961 0 l 613 875 z m 557 928 l 482 1125 l 261 1125 l 396 928 z m 471 604 l 476 604 l 576 346 l 371 346 z "},"Å":{"ha":961,"x_min":0,"x_max":0,"o":"m 349 875 l 0 0 l 238 0 l 303 169 l 644 169 l 710 0 l 961 0 l 613 875 z m 339 1051 b 475 921 339 976 393 921 b 611 1051 557 921 611 976 b 475 1182 611 1126 557 1182 b 339 1051 393 1182 339 1126 z m 471 604 l 476 604 l 576 346 l 371 346 z m 428 1051 b 475 1099 428 1079 443 1099 b 522 1051 507 1099 522 1079 b 475 1004 522 1024 507 1004 b 428 1051 443 1004 428 1024 z "},"Ã":{"ha":961,"x_min":0,"x_max":0,"o":"m 349 875 l 0 0 l 238 0 l 303 169 l 644 169 l 710 0 l 961 0 l 613 875 z m 368 928 b 413 975 371 964 392 975 b 561 924 460 975 497 924 b 686 1125 643 924 686 1007 l 582 1125 b 538 1078 579 1089 558 1078 b 389 1129 490 1078 453 1129 b 264 928 307 1129 264 1046 z m 471 604 l 476 604 l 576 346 l 371 346 z "},"Ç":{"ha":929,"x_min":0,"x_max":0,"o":"m 653 -142 b 493 -50 653 -65 575 -35 l 521 -14 b 904 371 760 3 888 165 l 678 381 b 475 193 664 283 611 193 b 271 438 346 193 271 289 b 475 682 271 586 346 682 b 678 494 611 682 664 592 l 904 503 b 476 892 888 721 744 892 b 28 438 221 892 28 707 b 450 -15 28 178 207 -3 l 385 -110 l 428 -125 b 524 -144 464 -110 524 -107 b 468 -174 524 -167 503 -174 b 351 -143 421 -174 382 -161 l 328 -197 b 486 -243 358 -222 417 -243 b 653 -142 569 -243 653 -217 z "},"É":{"ha":794,"x_min":0,"x_max":0,"o":"m 756 194 l 299 194 l 299 346 l 642 346 l 642 538 l 299 538 l 299 681 l 743 681 l 743 875 l 67 875 l 67 0 l 756 0 z m 497 928 l 632 1125 l 411 1125 l 336 928 z "},"Ê":{"ha":794,"x_min":0,"x_max":0,"o":"m 756 194 l 299 194 l 299 346 l 642 346 l 642 538 l 299 538 l 299 681 l 743 681 l 743 875 l 67 875 l 67 0 l 756 0 z m 314 1125 l 194 928 l 336 928 l 419 1004 l 503 928 l 644 928 l 525 1125 z "},"Ë":{"ha":794,"x_min":0,"x_max":0,"o":"m 756 194 l 299 194 l 299 346 l 642 346 l 642 538 l 299 538 l 299 681 l 743 681 l 743 875 l 67 875 l 67 0 l 756 0 z m 190 928 l 388 928 l 388 1125 l 190 1125 z m 451 928 l 649 928 l 649 1125 l 451 1125 z "},"È":{"ha":794,"x_min":0,"x_max":0,"o":"m 756 194 l 299 194 l 299 346 l 642 346 l 642 538 l 299 538 l 299 681 l 743 681 l 743 875 l 67 875 l 67 0 l 756 0 z m 501 928 l 426 1125 l 206 1125 l 340 928 z "},"Í":{"ha":369,"x_min":0,"x_max":0,"o":"m 67 875 l 67 0 l 303 0 l 303 875 z m 263 928 l 397 1125 l 176 1125 l 101 928 z "},"Î":{"ha":369,"x_min":0,"x_max":0,"o":"m 67 875 l 67 0 l 303 0 l 303 875 z m 79 1125 l -40 928 l 101 928 l 185 1004 l 268 928 l 410 928 l 290 1125 z "},"Ï":{"ha":369,"x_min":0,"x_max":0,"o":"m 67 875 l 67 0 l 303 0 l 303 875 z m -44 928 l 153 928 l 153 1125 l -44 1125 z m 217 928 l 414 928 l 414 1125 l 217 1125 z "},"Ì":{"ha":369,"x_min":0,"x_max":0,"o":"m 67 875 l 67 0 l 303 0 l 303 875 z m 267 928 l 192 1125 l -29 1125 l 106 928 z "},"Ñ":{"ha":917,"x_min":0,"x_max":0,"o":"m 292 875 l 67 875 l 67 0 l 283 0 l 283 518 l 661 0 l 850 0 l 850 875 l 633 875 l 633 390 z m 365 928 b 410 975 368 964 389 975 b 558 924 457 975 494 924 b 683 1125 640 924 683 1007 l 579 1125 b 535 1078 576 1089 556 1078 b 386 1129 488 1078 450 1129 b 261 928 304 1129 261 1046 z "},"Ó":{"ha":964,"x_min":0,"x_max":0,"o":"m 936 438 b 482 892 936 707 736 892 b 28 438 228 892 28 707 b 482 -17 28 168 228 -17 b 936 438 736 -17 936 168 z m 693 438 b 482 192 693 289 611 192 b 271 438 353 192 271 289 b 482 683 271 586 353 683 b 693 438 611 683 693 586 z m 560 928 l 694 1125 l 474 1125 l 399 928 z "},"Ô":{"ha":964,"x_min":0,"x_max":0,"o":"m 936 438 b 482 892 936 707 736 892 b 28 438 228 892 28 707 b 482 -17 28 168 228 -17 b 936 438 736 -17 936 168 z m 693 438 b 482 192 693 289 611 192 b 271 438 353 192 271 289 b 482 683 271 586 353 683 b 693 438 611 683 693 586 z m 376 1125 l 257 928 l 399 928 l 482 1004 l 565 928 l 707 928 l 588 1125 z "},"Ö":{"ha":964,"x_min":0,"x_max":0,"o":"m 936 438 b 482 892 936 707 736 892 b 28 438 228 892 28 707 b 482 -17 28 168 228 -17 b 936 438 736 -17 936 168 z m 693 438 b 482 192 693 289 611 192 b 271 438 353 192 271 289 b 482 683 271 586 353 683 b 693 438 611 683 693 586 z m 253 928 l 450 928 l 450 1125 l 253 1125 z m 514 928 l 711 928 l 711 1125 l 514 1125 z "},"Ò":{"ha":964,"x_min":0,"x_max":0,"o":"m 936 438 b 482 892 936 707 736 892 b 28 438 228 892 28 707 b 482 -17 28 168 228 -17 b 936 438 736 -17 936 168 z m 693 438 b 482 192 693 289 611 192 b 271 438 353 192 271 289 b 482 683 271 586 353 683 b 693 438 611 683 693 586 z m 564 928 l 489 1125 l 268 1125 l 403 928 z "},"Õ":{"ha":964,"x_min":0,"x_max":0,"o":"m 936 438 b 482 892 936 707 736 892 b 28 438 228 892 28 707 b 482 -17 28 168 228 -17 b 936 438 736 -17 936 168 z m 693 438 b 482 192 693 289 611 192 b 271 438 353 192 271 289 b 482 683 271 586 353 683 b 693 438 611 683 693 586 z m 375 928 b 419 975 378 964 399 975 b 568 924 467 975 504 924 b 693 1125 650 924 693 1007 l 589 1125 b 544 1078 586 1089 565 1078 b 396 1129 497 1078 460 1129 b 271 928 314 1129 271 1046 z "},"Š":{"ha":842,"x_min":0,"x_max":0,"o":"m 28 310 b 435 -17 28 99 197 -17 b 800 263 639 -17 800 76 b 533 533 800 406 717 501 l 368 563 b 281 628 314 572 281 588 b 403 707 281 676 325 707 b 565 575 493 707 558 665 l 782 579 b 406 892 778 774 647 892 b 49 607 188 892 49 785 b 292 347 49 454 149 374 l 451 319 b 569 247 518 307 569 299 b 435 169 569 199 517 169 b 244 317 338 169 253 207 z m 528 928 l 647 1125 l 506 1125 l 422 1049 l 339 1125 l 197 1125 l 317 928 z "},"Ú":{"ha":917,"x_min":0,"x_max":0,"o":"m 458 -17 b 857 347 683 -17 857 92 l 857 875 l 621 875 l 621 386 b 458 182 621 253 581 182 b 296 386 338 182 296 253 l 296 875 l 61 875 l 61 347 b 458 -17 61 92 233 -17 z m 536 928 l 671 1125 l 450 1125 l 375 928 z "},"Û":{"ha":917,"x_min":0,"x_max":0,"o":"m 458 -17 b 857 347 683 -17 857 92 l 857 875 l 621 875 l 621 386 b 458 182 621 253 581 182 b 296 386 338 182 296 253 l 296 875 l 61 875 l 61 347 b 458 -17 61 92 233 -17 z m 353 1125 l 233 928 l 375 928 l 458 1004 l 542 928 l 683 928 l 564 1125 z "},"Ü":{"ha":917,"x_min":0,"x_max":0,"o":"m 458 -17 b 857 347 683 -17 857 92 l 857 875 l 621 875 l 621 386 b 458 182 621 253 581 182 b 296 386 338 182 296 253 l 296 875 l 61 875 l 61 347 b 458 -17 61 92 233 -17 z m 229 928 l 426 928 l 426 1125 l 229 1125 z m 490 928 l 688 928 l 688 1125 l 490 1125 z "},"Ù":{"ha":917,"x_min":0,"x_max":0,"o":"m 458 -17 b 857 347 683 -17 857 92 l 857 875 l 621 875 l 621 386 b 458 182 621 253 581 182 b 296 386 338 182 296 253 l 296 875 l 61 875 l 61 347 b 458 -17 61 92 233 -17 z m 540 928 l 465 1125 l 244 1125 l 379 928 z "},"Ý":{"ha":901,"x_min":0,"x_max":0,"o":"m 460 560 l 263 875 l 0 875 l 336 332 l 336 0 l 565 0 l 565 332 l 901 875 l 647 875 z m 528 928 l 663 1125 l 442 1125 l 367 928 z "},"Ÿ":{"ha":901,"x_min":0,"x_max":0,"o":"m 460 560 l 263 875 l 0 875 l 336 332 l 336 0 l 565 0 l 565 332 l 901 875 l 647 875 z m 221 928 l 418 928 l 418 1125 l 221 1125 z m 482 928 l 679 928 l 679 1125 l 482 1125 z "},"Ž":{"ha":825,"x_min":0,"x_max":0,"o":"m 339 194 l 772 692 l 772 875 l 46 875 l 46 681 l 472 681 l 42 179 l 42 0 l 783 0 l 783 194 z m 518 928 l 638 1125 l 496 1125 l 413 1049 l 329 1125 l 188 1125 l 307 928 z "},"á":{"ha":732,"x_min":0,"x_max":0,"o":"m 419 258 b 304 131 419 178 368 131 b 242 183 267 131 242 151 b 328 251 242 224 274 240 l 419 268 z m 640 393 b 356 636 640 565 519 636 b 49 406 169 636 68 542 l 257 392 b 342 469 267 438 292 469 b 419 388 396 469 419 439 l 419 378 l 246 349 b 25 154 111 325 25 274 b 225 -14 25 49 104 -14 b 431 96 324 -14 394 24 b 588 -14 451 25 511 -14 b 728 26 651 -14 696 4 l 728 146 b 678 136 710 139 696 136 b 640 182 654 136 640 150 z m 438 678 l 572 875 l 351 875 l 276 678 z "},"â":{"ha":732,"x_min":0,"x_max":0,"o":"m 419 258 b 304 131 419 178 368 131 b 242 183 267 131 242 151 b 328 251 242 224 274 240 l 419 268 z m 640 393 b 356 636 640 565 519 636 b 49 406 169 636 68 542 l 257 392 b 342 469 267 438 292 469 b 419 388 396 469 419 439 l 419 378 l 246 349 b 25 154 111 325 25 274 b 225 -14 25 49 104 -14 b 431 96 324 -14 394 24 b 588 -14 451 25 511 -14 b 728 26 651 -14 696 4 l 728 146 b 678 136 710 139 696 136 b 640 182 654 136 640 150 z m 254 875 l 135 678 l 276 678 l 360 754 l 443 678 l 585 678 l 465 875 z "},"ä":{"ha":732,"x_min":0,"x_max":0,"o":"m 419 258 b 304 131 419 178 368 131 b 242 183 267 131 242 151 b 328 251 242 224 274 240 l 419 268 z m 640 393 b 356 636 640 565 519 636 b 49 406 169 636 68 542 l 257 392 b 342 469 267 438 292 469 b 419 388 396 469 419 439 l 419 378 l 246 349 b 25 154 111 325 25 274 b 225 -14 25 49 104 -14 b 431 96 324 -14 394 24 b 588 -14 451 25 511 -14 b 728 26 651 -14 696 4 l 728 146 b 678 136 710 139 696 136 b 640 182 654 136 640 150 z m 131 678 l 328 678 l 328 875 l 131 875 z m 392 678 l 589 678 l 589 875 l 392 875 z "},"à":{"ha":732,"x_min":0,"x_max":0,"o":"m 419 258 b 304 131 419 178 368 131 b 242 183 267 131 242 151 b 328 251 242 224 274 240 l 419 268 z m 640 393 b 356 636 640 565 519 636 b 49 406 169 636 68 542 l 257 392 b 342 469 267 438 292 469 b 419 388 396 469 419 439 l 419 378 l 246 349 b 25 154 111 325 25 274 b 225 -14 25 49 104 -14 b 431 96 324 -14 394 24 b 588 -14 451 25 511 -14 b 728 26 651 -14 696 4 l 728 146 b 678 136 710 139 696 136 b 640 182 654 136 640 150 z m 442 678 l 367 875 l 146 875 l 281 678 z "},"å":{"ha":732,"x_min":0,"x_max":0,"o":"m 419 258 b 304 131 419 178 368 131 b 242 183 267 131 242 151 b 328 251 242 224 274 240 l 419 268 z m 640 393 b 356 636 640 565 519 636 b 49 406 169 636 68 542 l 257 392 b 342 469 267 438 292 469 b 419 388 396 469 419 439 l 419 378 l 246 349 b 25 154 111 325 25 274 b 225 -14 25 49 104 -14 b 431 96 324 -14 394 24 b 588 -14 451 25 511 -14 b 728 26 651 -14 696 4 l 728 146 b 678 136 710 139 696 136 b 640 182 654 136 640 150 z m 313 801 b 360 849 313 829 328 849 b 407 801 392 849 407 829 b 360 754 407 774 392 754 b 313 801 328 754 313 774 z m 224 801 b 360 671 224 726 278 671 b 496 801 442 671 496 726 b 360 932 496 876 442 932 b 224 801 278 932 224 876 z "},"ã":{"ha":732,"x_min":0,"x_max":0,"o":"m 419 258 b 304 131 419 178 368 131 b 242 183 267 131 242 151 b 328 251 242 224 274 240 l 419 268 z m 640 393 b 356 636 640 565 519 636 b 49 406 169 636 68 542 l 257 392 b 342 469 267 438 292 469 b 419 388 396 469 419 439 l 419 378 l 246 349 b 25 154 111 325 25 274 b 225 -14 25 49 104 -14 b 431 96 324 -14 394 24 b 588 -14 451 25 511 -14 b 728 26 651 -14 696 4 l 728 146 b 678 136 710 139 696 136 b 640 182 654 136 640 150 z m 256 678 b 300 725 258 714 279 725 b 449 674 347 725 385 674 b 574 875 531 674 574 757 l 469 875 b 425 828 467 839 446 828 b 276 879 378 828 340 879 b 151 678 194 879 151 796 z "},"ç":{"ha":697,"x_min":0,"x_max":0,"o":"m 526 -142 b 367 -50 526 -65 449 -35 l 393 -15 b 672 253 563 -4 657 110 l 488 267 b 369 153 472 190 435 153 b 254 310 301 153 254 199 b 369 467 254 421 301 467 b 488 354 435 467 472 431 l 672 367 b 367 636 657 515 553 636 b 28 310 171 636 28 506 b 325 -14 28 126 150 3 l 258 -110 l 301 -125 b 397 -144 338 -110 397 -107 b 342 -174 397 -167 376 -174 b 225 -143 294 -174 256 -161 l 201 -197 b 360 -243 232 -222 290 -243 b 526 -142 443 -243 526 -217 z "},"é":{"ha":713,"x_min":0,"x_max":0,"o":"m 497 221 b 376 151 476 172 438 151 b 247 264 308 151 253 188 l 682 264 l 682 326 b 365 636 682 494 572 636 b 28 300 172 636 28 496 b 368 -17 28 103 169 -17 b 678 204 532 -17 646 63 z m 250 372 b 363 475 258 431 290 475 b 468 372 429 475 465 428 z m 446 678 l 581 875 l 360 875 l 285 678 z "},"ê":{"ha":713,"x_min":0,"x_max":0,"o":"m 497 221 b 376 151 476 172 438 151 b 247 264 308 151 253 188 l 682 264 l 682 326 b 365 636 682 494 572 636 b 28 300 172 636 28 496 b 368 -17 28 103 169 -17 b 678 204 532 -17 646 63 z m 250 372 b 363 475 258 431 290 475 b 468 372 429 475 465 428 z m 263 875 l 143 678 l 285 678 l 368 754 l 451 678 l 593 678 l 474 875 z "},"ë":{"ha":713,"x_min":0,"x_max":0,"o":"m 497 221 b 376 151 476 172 438 151 b 247 264 308 151 253 188 l 682 264 l 682 326 b 365 636 682 494 572 636 b 28 300 172 636 28 496 b 368 -17 28 103 169 -17 b 678 204 532 -17 646 63 z m 250 372 b 363 475 258 431 290 475 b 468 372 429 475 465 428 z m 139 678 l 336 678 l 336 875 l 139 875 z m 400 678 l 597 678 l 597 875 l 400 875 z "},"è":{"ha":713,"x_min":0,"x_max":0,"o":"m 497 221 b 376 151 476 172 438 151 b 247 264 308 151 253 188 l 682 264 l 682 326 b 365 636 682 494 572 636 b 28 300 172 636 28 496 b 368 -17 28 103 169 -17 b 678 204 532 -17 646 63 z m 250 372 b 363 475 258 431 290 475 b 468 372 429 475 465 428 z m 450 678 l 375 875 l 154 875 l 289 678 z "},"í":{"ha":347,"x_min":0,"x_max":0,"o":"m 61 619 l 61 0 l 286 0 l 286 619 z m 251 678 l 386 875 l 165 875 l 90 678 z "},"î":{"ha":347,"x_min":0,"x_max":0,"o":"m 61 619 l 61 0 l 286 0 l 286 619 z m 68 875 l -51 678 l 90 678 l 174 754 l 257 678 l 399 678 l 279 875 z "},"ï":{"ha":347,"x_min":0,"x_max":0,"o":"m 61 619 l 61 0 l 286 0 l 286 619 z m -56 678 l 142 678 l 142 875 l -56 875 z m 206 678 l 403 678 l 403 875 l 206 875 z "},"ì":{"ha":347,"x_min":0,"x_max":0,"o":"m 61 619 l 61 0 l 286 0 l 286 619 z m 256 678 l 181 875 l -40 875 l 94 678 z "},"ñ":{"ha":764,"x_min":0,"x_max":0,"o":"m 286 304 b 393 458 286 397 317 458 b 485 329 461 458 485 414 l 485 0 l 710 0 l 710 389 b 486 636 710 518 656 636 b 286 526 393 636 319 594 l 286 619 l 61 619 l 61 0 l 286 0 z m 289 678 b 333 725 292 714 313 725 b 482 674 381 725 418 674 b 607 875 564 674 607 757 l 503 875 b 458 828 500 839 479 828 b 310 879 411 828 374 879 b 185 678 228 879 185 796 z "},"ó":{"ha":733,"x_min":0,"x_max":0,"o":"m 254 310 b 367 467 254 403 288 467 b 479 310 444 467 479 403 b 367 153 479 217 444 153 b 254 310 288 153 254 217 z m 706 310 b 367 636 706 501 568 636 b 28 310 164 636 28 501 b 367 -17 28 117 164 -17 b 706 310 568 -17 706 117 z m 444 678 l 579 875 l 358 875 l 283 678 z "},"ô":{"ha":733,"x_min":0,"x_max":0,"o":"m 254 310 b 367 467 254 403 288 467 b 479 310 444 467 479 403 b 367 153 479 217 444 153 b 254 310 288 153 254 217 z m 706 310 b 367 636 706 501 568 636 b 28 310 164 636 28 501 b 367 -17 28 117 164 -17 b 706 310 568 -17 706 117 z m 261 875 l 142 678 l 283 678 l 367 754 l 450 678 l 592 678 l 472 875 z "},"ö":{"ha":733,"x_min":0,"x_max":0,"o":"m 254 310 b 367 467 254 403 288 467 b 479 310 444 467 479 403 b 367 153 479 217 444 153 b 254 310 288 153 254 217 z m 706 310 b 367 636 706 501 568 636 b 28 310 164 636 28 501 b 367 -17 28 117 164 -17 b 706 310 568 -17 706 117 z m 138 678 l 335 678 l 335 875 l 138 875 z m 399 678 l 596 678 l 596 875 l 399 875 z "},"ò":{"ha":733,"x_min":0,"x_max":0,"o":"m 254 310 b 367 467 254 403 288 467 b 479 310 444 467 479 403 b 367 153 479 217 444 153 b 254 310 288 153 254 217 z m 706 310 b 367 636 706 501 568 636 b 28 310 164 636 28 501 b 367 -17 28 117 164 -17 b 706 310 568 -17 706 117 z m 449 678 l 374 875 l 153 875 l 288 678 z "},"õ":{"ha":733,"x_min":0,"x_max":0,"o":"m 254 310 b 367 467 254 403 288 467 b 479 310 444 467 479 403 b 367 153 479 217 444 153 b 254 310 288 153 254 217 z m 706 310 b 367 636 706 501 568 636 b 28 310 164 636 28 501 b 367 -17 28 117 164 -17 b 706 310 568 -17 706 117 z m 263 678 b 307 725 265 714 286 725 b 456 674 354 725 392 674 b 581 875 538 674 581 757 l 476 875 b 432 828 474 839 453 828 b 283 879 385 828 347 879 b 158 678 201 879 158 796 z "},"š":{"ha":640,"x_min":0,"x_max":0,"o":"m 17 201 b 328 -17 29 51 157 -17 b 615 189 504 -17 615 58 b 396 394 615 310 535 372 l 275 415 b 238 450 254 418 238 429 b 306 494 238 478 263 494 b 422 422 375 494 414 467 l 607 428 b 310 636 594 557 489 636 b 29 426 136 636 29 549 b 258 228 29 300 108 251 l 350 214 b 407 167 393 207 407 190 b 331 124 407 142 381 124 b 213 204 263 124 221 153 z m 429 678 l 549 875 l 407 875 l 324 799 l 240 875 l 99 875 l 218 678 z "},"ú":{"ha":756,"x_min":0,"x_max":0,"o":"m 469 315 b 371 160 469 221 442 160 b 279 289 303 160 279 206 l 279 619 l 54 619 l 54 229 b 275 -17 54 100 106 -17 b 469 93 368 -17 436 24 l 469 0 l 694 0 l 694 619 l 469 619 z m 451 678 l 586 875 l 365 875 l 290 678 z "},"û":{"ha":756,"x_min":0,"x_max":0,"o":"m 469 315 b 371 160 469 221 442 160 b 279 289 303 160 279 206 l 279 619 l 54 619 l 54 229 b 275 -17 54 100 106 -17 b 469 93 368 -17 436 24 l 469 0 l 694 0 l 694 619 l 469 619 z m 268 875 l 149 678 l 290 678 l 374 754 l 457 678 l 599 678 l 479 875 z "},"ü":{"ha":756,"x_min":0,"x_max":0,"o":"m 469 315 b 371 160 469 221 442 160 b 279 289 303 160 279 206 l 279 619 l 54 619 l 54 229 b 275 -17 54 100 106 -17 b 469 93 368 -17 436 24 l 469 0 l 694 0 l 694 619 l 469 619 z m 144 678 l 342 678 l 342 875 l 144 875 z m 406 678 l 603 678 l 603 875 l 406 875 z "},"ù":{"ha":756,"x_min":0,"x_max":0,"o":"m 469 315 b 371 160 469 221 442 160 b 279 289 303 160 279 206 l 279 619 l 54 619 l 54 229 b 275 -17 54 100 106 -17 b 469 93 368 -17 436 24 l 469 0 l 694 0 l 694 619 l 469 619 z m 456 678 l 381 875 l 160 875 l 294 678 z "},"ý":{"ha":735,"x_min":0,"x_max":0,"o":"m 382 -222 l 738 619 l 517 619 l 376 257 l 371 257 l 233 619 l -3 619 l 250 -8 l 161 -222 z m 444 678 l 579 875 l 358 875 l 283 678 z "},"ÿ":{"ha":735,"x_min":0,"x_max":0,"o":"m 382 -222 l 738 619 l 517 619 l 376 257 l 371 257 l 233 619 l -3 619 l 250 -8 l 161 -222 z m 138 678 l 335 678 l 335 875 l 138 875 z m 399 678 l 596 678 l 596 875 l 399 875 z "},"ž":{"ha":628,"x_min":0,"x_max":0,"o":"m 311 457 l 36 154 l 36 0 l 592 0 l 592 163 l 306 163 l 585 467 l 585 619 l 42 619 l 42 457 z m 419 678 l 539 875 l 397 875 l 314 799 l 231 875 l 89 875 l 208 678 z "},"€":{"ha":890,"x_min":0,"x_max":0,"o":"m 21 290 l 103 290 b 490 -17 146 96 282 -17 b 857 357 714 -17 853 143 l 642 367 b 490 186 639 256 588 186 b 339 290 413 186 364 222 l 492 290 l 506 401 l 319 401 l 319 468 l 514 468 l 528 579 l 338 579 b 490 689 361 650 410 689 b 642 508 588 689 639 604 l 857 517 b 490 892 849 726 722 892 b 101 579 281 892 143 776 l 21 579 l 21 468 l 88 468 l 88 401 l 21 401 z "},"≈":{"ha":881,"x_min":0,"x_max":0,"o":"m 74 456 b 271 521 146 501 211 521 b 606 457 396 521 481 457 b 807 522 665 457 733 475 l 807 694 b 606 628 733 646 665 628 b 271 692 481 628 396 692 b 74 626 211 692 146 672 z m 74 176 b 271 242 146 222 211 242 b 606 178 396 242 481 178 b 807 243 665 178 733 196 l 807 415 b 606 349 733 367 665 349 b 271 414 481 349 396 414 b 74 347 211 414 146 394 z "},"≠":{"ha":881,"x_min":0,"x_max":0,"o":"m 74 503 l 406 503 l 319 367 l 74 367 l 74 203 l 217 203 l 115 43 l 271 43 l 371 203 l 807 203 l 807 367 l 475 367 l 561 503 l 807 503 l 807 667 l 664 667 l 765 826 l 611 826 l 510 667 l 74 667 z "},"≤":{"ha":672,"x_min":0,"x_max":0,"o":"m 57 22 l 615 22 l 615 208 l 57 208 z m 57 421 l 615 238 l 615 442 l 243 546 l 615 649 l 615 854 l 57 669 z "},"≥":{"ha":672,"x_min":0,"x_max":0,"o":"m 615 208 l 57 208 l 57 22 l 615 22 z m 615 669 l 57 854 l 57 649 l 428 546 l 57 442 l 57 238 l 615 421 z "},"³":{"ha":500,"x_min":0,"x_max":0,"o":"m 303 482 b 254 443 303 456 278 443 b 186 503 214 443 188 460 l 17 508 b 254 303 17 383 104 303 b 479 468 388 303 479 360 b 367 599 479 536 442 585 b 464 715 418 604 464 649 b 251 886 464 817 386 886 b 22 675 107 886 22 790 l 188 668 b 246 746 188 710 206 746 b 293 697 278 746 293 728 b 243 649 293 667 269 649 b 204 650 233 649 213 649 l 204 529 b 242 531 219 532 235 531 b 303 482 276 531 303 515 z "},"Ţ":{"ha":908,"x_min":0,"x_max":0,"o":"m 569 0 l 569 681 l 874 681 l 874 875 l 35 875 l 35 681 l 335 681 l 335 0 z m 356 -185 l 432 -185 b 356 -229 431 -221 407 -229 l 356 -303 b 553 -149 483 -303 553 -260 l 553 -47 l 356 -47 z "},"ţ":{"ha":497,"x_min":0,"x_max":0,"o":"m 83 172 b 286 -17 83 26 182 -17 b 472 39 371 -17 425 4 l 472 185 b 376 164 435 169 404 164 b 306 238 331 164 306 185 l 306 464 l 467 464 l 467 619 l 306 619 l 306 790 l 164 790 l 143 710 b 46 610 128 653 108 619 l 0 603 l 0 464 l 83 464 z m 185 -185 l 261 -185 b 185 -229 260 -221 236 -229 l 185 -303 b 382 -149 313 -303 382 -260 l 382 -47 l 185 -47 z "},"ȷ":{"ha":347,"x_min":0,"x_max":0,"o":"m 286 619 l 61 619 l 61 -10 b 1 -85 61 -62 40 -85 b -89 -58 -28 -85 -57 -78 l -124 -194 b 54 -239 -83 -224 -15 -239 b 286 -21 197 -239 286 -174 z "},"℗":{"ha":1006,"x_min":0,"x_max":0,"o":"m 49 438 b 503 -17 49 174 253 -17 b 957 438 753 -17 957 174 b 503 892 957 701 753 892 b 49 438 253 892 49 701 z m 118 438 b 503 825 118 661 292 825 b 888 438 714 825 888 661 b 503 50 888 214 714 50 b 118 438 292 50 118 214 z m 458 454 l 458 579 l 528 579 b 617 515 592 579 617 557 b 528 454 617 476 592 454 z m 458 335 l 544 335 b 764 518 683 335 764 400 b 544 699 764 633 683 699 l 313 699 l 313 169 l 458 169 z "},"ﬀ":{"ha":861,"x_min":0,"x_max":0,"o":"m 493 464 l 493 0 l 715 0 l 715 464 l 872 464 l 872 619 l 715 619 l 715 661 b 767 731 715 700 729 731 b 826 688 796 731 813 715 l 964 731 b 742 892 939 833 858 892 b 493 629 593 892 493 797 l 493 619 l 308 619 l 308 651 b 365 715 308 690 325 715 b 436 694 390 715 417 706 l 478 833 b 311 878 435 860 392 878 b 86 644 167 878 86 793 l 86 619 l -3 619 l -3 464 l 86 464 l 86 0 l 308 0 l 308 464 z "},"ﬃ":{"ha":1186,"x_min":0,"x_max":0,"o":"m 493 464 l 493 0 l 715 0 l 715 464 l 900 464 l 900 0 l 1125 0 l 1125 619 l 715 619 l 715 629 b 807 731 715 694 751 731 b 890 681 853 731 876 708 l 1054 733 b 790 892 1011 835 933 892 b 493 628 615 892 493 794 l 493 619 l 308 619 l 308 651 b 365 715 308 690 325 715 b 436 694 390 715 417 706 l 478 833 b 311 878 435 860 392 878 b 86 644 167 878 86 793 l 86 619 l -3 619 l -3 464 l 86 464 l 86 0 l 308 0 l 308 464 z "},"ﬄ":{"ha":1186,"x_min":0,"x_max":0,"o":"m 493 464 l 493 0 l 715 0 l 715 464 l 835 464 l 835 619 l 715 619 l 715 654 b 772 722 715 693 735 722 b 833 706 797 722 814 717 l 856 863 b 718 892 818 882 771 892 b 493 646 574 892 493 807 l 493 619 l 308 619 l 308 651 b 365 715 308 690 325 715 b 436 694 390 715 417 706 l 478 833 b 311 878 435 860 392 878 b 86 644 167 878 86 793 l 86 619 l -3 619 l -3 464 l 86 464 l 86 0 l 308 0 l 308 464 z m 900 875 l 900 0 l 1125 0 l 1125 875 z "},"Ă":{"ha":961,"x_min":0,"x_max":0,"o":"m 349 875 l 0 0 l 238 0 l 303 169 l 644 169 l 710 0 l 961 0 l 613 875 z m 475 928 b 672 1125 599 928 672 1001 l 546 1125 b 475 1061 546 1081 515 1061 b 404 1125 435 1061 404 1081 l 278 1125 b 475 928 278 1001 351 928 z m 471 604 l 476 604 l 576 346 l 371 346 z "},"Ā":{"ha":961,"x_min":0,"x_max":0,"o":"m 349 875 l 0 0 l 238 0 l 303 169 l 644 169 l 710 0 l 961 0 l 613 875 z m 278 933 l 674 933 l 674 1083 l 278 1083 z m 471 604 l 476 604 l 576 346 l 371 346 z "},"Ą":{"ha":961,"x_min":0,"x_max":0,"o":"m 349 875 l 0 0 l 238 0 l 303 169 l 644 169 l 710 0 l 799 0 b 717 -143 746 -40 717 -89 b 849 -243 717 -203 765 -243 b 961 -210 907 -243 938 -225 l 961 -110 b 900 -126 940 -119 922 -126 b 863 -90 878 -126 863 -114 b 961 0 863 -61 885 -42 l 613 875 z m 471 604 l 476 604 l 576 346 l 371 346 z "},"Ǻ":{"ha":961,"x_min":0,"x_max":0,"o":"m 349 875 l 0 0 l 238 0 l 303 169 l 644 169 l 710 0 l 961 0 l 613 875 z m 339 1022 b 475 901 339 953 393 901 b 613 1022 558 901 613 953 b 475 1143 613 1092 558 1143 b 339 1022 393 1143 339 1092 z m 558 1171 l 675 1331 l 454 1331 l 397 1171 z m 471 604 l 476 604 l 576 346 l 371 346 z m 428 1022 b 475 1065 428 1049 443 1065 b 524 1022 508 1065 524 1049 b 475 979 524 996 508 979 b 428 1022 443 979 428 996 z "},"Ǽ":{"ha":1382,"x_min":0,"x_max":0,"o":"m 507 875 l 0 0 l 247 0 l 358 197 l 654 197 l 654 0 l 1343 0 l 1343 194 l 886 194 l 886 346 l 1229 346 l 1229 538 l 886 538 l 886 681 l 1331 681 l 1331 875 z m 990 928 l 1125 1125 l 904 1125 l 829 928 z m 649 711 l 654 711 l 654 374 l 457 374 z "},"Ć":{"ha":929,"x_min":0,"x_max":0,"o":"m 28 438 b 476 -17 28 168 221 -17 b 904 371 744 -17 888 153 l 678 381 b 475 193 664 283 611 193 b 271 438 346 193 271 289 b 475 682 271 586 346 682 b 678 494 611 682 664 592 l 904 503 b 476 892 888 721 744 892 b 28 438 221 892 28 707 z m 568 928 l 703 1125 l 482 1125 l 407 928 z "},"Č":{"ha":929,"x_min":0,"x_max":0,"o":"m 28 438 b 476 -17 28 168 221 -17 b 904 371 744 -17 888 153 l 678 381 b 475 193 664 283 611 193 b 271 438 346 193 271 289 b 475 682 271 586 346 682 b 678 494 611 682 664 592 l 904 503 b 476 892 888 721 744 892 b 28 438 221 892 28 707 z m 590 928 l 710 1125 l 568 1125 l 485 1049 l 401 1125 l 260 1125 l 379 928 z "},"Ĉ":{"ha":929,"x_min":0,"x_max":0,"o":"m 28 438 b 476 -17 28 168 221 -17 b 904 371 744 -17 888 153 l 678 381 b 475 193 664 283 611 193 b 271 438 346 193 271 289 b 475 682 271 586 346 682 b 678 494 611 682 664 592 l 904 503 b 476 892 888 721 744 892 b 28 438 221 892 28 707 z m 379 1125 l 260 928 l 401 928 l 485 1004 l 568 928 l 710 928 l 590 1125 z "},"Ċ":{"ha":929,"x_min":0,"x_max":0,"o":"m 28 438 b 476 -17 28 168 221 -17 b 904 371 744 -17 888 153 l 678 381 b 475 193 664 283 611 193 b 271 438 346 193 271 289 b 475 682 271 586 346 682 b 678 494 611 682 664 592 l 904 503 b 476 892 888 721 744 892 b 28 438 221 892 28 707 z m 371 928 l 599 928 l 599 1125 l 371 1125 z "},"Ď":{"ha":910,"x_min":0,"x_max":0,"o":"m 303 186 l 303 689 l 396 689 b 639 439 549 689 639 597 b 396 186 639 278 549 186 z m 67 0 l 413 0 b 882 438 703 0 882 164 b 413 875 882 711 703 875 l 67 875 z m 524 928 l 643 1125 l 501 1125 l 418 1049 l 335 1125 l 193 1125 l 313 928 z "},"Đ":{"ha":938,"x_min":0,"x_max":0,"o":"m 21 346 l 94 346 l 94 0 l 440 0 b 910 438 731 0 910 164 b 440 875 910 711 731 875 l 94 875 l 94 538 l 21 538 z m 331 186 l 331 346 l 515 346 l 515 538 l 331 538 l 331 689 l 424 689 b 667 439 576 689 667 597 b 424 186 667 278 576 186 z "},"Ĕ":{"ha":794,"x_min":0,"x_max":0,"o":"m 756 194 l 299 194 l 299 346 l 642 346 l 642 538 l 299 538 l 299 681 l 743 681 l 743 875 l 67 875 l 67 0 l 756 0 z m 419 928 b 617 1125 543 928 617 1001 l 490 1125 b 419 1061 490 1081 460 1061 b 349 1125 379 1061 349 1081 l 222 1125 b 419 928 222 1001 296 928 z "},"Ě":{"ha":794,"x_min":0,"x_max":0,"o":"m 756 194 l 299 194 l 299 346 l 642 346 l 642 538 l 299 538 l 299 681 l 743 681 l 743 875 l 67 875 l 67 0 l 756 0 z m 525 928 l 644 1125 l 503 1125 l 419 1049 l 336 1125 l 194 1125 l 314 928 z "},"Ė":{"ha":794,"x_min":0,"x_max":0,"o":"m 756 194 l 299 194 l 299 346 l 642 346 l 642 538 l 299 538 l 299 681 l 743 681 l 743 875 l 67 875 l 67 0 l 756 0 z m 306 928 l 533 928 l 533 1125 l 306 1125 z "},"Ē":{"ha":794,"x_min":0,"x_max":0,"o":"m 756 194 l 299 194 l 299 346 l 642 346 l 642 538 l 299 538 l 299 681 l 743 681 l 743 875 l 67 875 l 67 0 l 756 0 z m 222 933 l 618 933 l 618 1083 l 222 1083 z "},"Ę":{"ha":794,"x_min":0,"x_max":0,"o":"m 756 194 l 299 194 l 299 346 l 642 346 l 642 538 l 299 538 l 299 681 l 743 681 l 743 875 l 67 875 l 67 0 l 574 0 b 492 -143 521 -40 492 -89 b 624 -243 492 -203 540 -243 b 736 -210 682 -243 713 -225 l 736 -110 b 675 -126 715 -119 697 -126 b 638 -90 653 -126 638 -114 b 707 0 638 -61 660 -42 l 756 0 z "},"Ğ":{"ha":972,"x_min":0,"x_max":0,"o":"m 453 -17 b 707 97 565 -17 658 17 l 707 0 l 913 0 l 913 454 l 496 454 l 496 285 l 689 285 b 503 183 654 215 579 183 b 271 438 351 183 271 285 b 485 682 271 586 347 682 b 676 525 597 682 664 621 l 906 533 b 479 892 886 751 736 892 b 28 438 226 892 28 707 b 453 -17 28 167 211 -17 z m 493 928 b 690 1125 617 928 690 1001 l 564 1125 b 493 1061 564 1081 533 1061 b 422 1125 453 1061 422 1081 l 296 1125 b 493 928 296 1001 369 928 z "},"Ĝ":{"ha":972,"x_min":0,"x_max":0,"o":"m 453 -17 b 707 97 565 -17 658 17 l 707 0 l 913 0 l 913 454 l 496 454 l 496 285 l 689 285 b 503 183 654 215 579 183 b 271 438 351 183 271 285 b 485 682 271 586 347 682 b 676 525 597 682 664 621 l 906 533 b 479 892 886 751 736 892 b 28 438 226 892 28 707 b 453 -17 28 167 211 -17 z m 388 1125 l 268 928 l 410 928 l 493 1004 l 576 928 l 718 928 l 599 1125 z "},"Ģ":{"ha":972,"x_min":0,"x_max":0,"o":"m 453 -17 b 707 97 565 -17 658 17 l 707 0 l 913 0 l 913 454 l 496 454 l 496 285 l 689 285 b 503 183 654 215 579 183 b 271 438 351 183 271 285 b 485 682 271 586 347 682 b 676 525 597 682 664 621 l 906 533 b 479 892 886 751 736 892 b 28 438 226 892 28 707 b 453 -17 28 167 211 -17 z m 401 -185 l 478 -185 b 401 -229 476 -221 453 -229 l 401 -303 b 599 -149 529 -303 599 -260 l 599 -47 l 401 -47 z "},"Ġ":{"ha":972,"x_min":0,"x_max":0,"o":"m 453 -17 b 707 97 565 -17 658 17 l 707 0 l 913 0 l 913 454 l 496 454 l 496 285 l 689 285 b 503 183 654 215 579 183 b 271 438 351 183 271 285 b 485 682 271 586 347 682 b 676 525 597 682 664 621 l 906 533 b 479 892 886 751 736 892 b 28 438 226 892 28 707 b 453 -17 28 167 211 -17 z m 379 928 l 607 928 l 607 1125 l 379 1125 z "},"Ħ":{"ha":1010,"x_min":0,"x_max":0,"o":"m 21 560 l 94 560 l 94 0 l 331 0 l 331 276 l 679 276 l 679 0 l 915 0 l 915 560 l 989 560 l 989 751 l 915 751 l 915 875 l 679 875 l 679 751 l 331 751 l 331 875 l 94 875 l 94 751 l 21 751 z m 331 468 l 331 560 l 679 560 l 679 468 z "},"Ĥ":{"ha":954,"x_min":0,"x_max":0,"o":"m 303 0 l 303 346 l 651 346 l 651 0 l 888 0 l 888 875 l 651 875 l 651 538 l 303 538 l 303 875 l 67 875 l 67 0 z m 371 1125 l 251 928 l 393 928 l 476 1004 l 560 928 l 701 928 l 582 1125 z "},"Ĭ":{"ha":369,"x_min":0,"x_max":0,"o":"m 67 875 l 67 0 l 303 0 l 303 875 z m 185 928 b 382 1125 308 928 382 1001 l 256 1125 b 185 1061 256 1081 225 1061 b 114 1125 144 1061 114 1081 l -12 1125 b 185 928 -12 1001 61 928 z "},"İ":{"ha":369,"x_min":0,"x_max":0,"o":"m 67 875 l 67 0 l 303 0 l 303 875 z m 71 928 l 299 928 l 299 1125 l 71 1125 z "},"Ī":{"ha":369,"x_min":0,"x_max":0,"o":"m 67 875 l 67 0 l 303 0 l 303 875 z m -12 933 l 383 933 l 383 1083 l -12 1083 z "},"Į":{"ha":369,"x_min":0,"x_max":0,"o":"m 67 875 l 67 0 l 140 0 b 58 -143 88 -40 58 -89 b 190 -243 58 -203 107 -243 b 303 -210 249 -243 279 -225 l 303 -110 b 242 -126 282 -119 264 -126 b 204 -90 219 -126 204 -114 b 303 0 204 -61 226 -42 l 303 875 z "},"Ĩ":{"ha":369,"x_min":0,"x_max":0,"o":"m 78 928 b 122 975 81 964 101 975 b 271 924 169 975 207 924 b 396 1125 353 924 396 1007 l 292 1125 b 247 1078 289 1089 268 1078 b 99 1129 200 1078 163 1129 b -26 928 17 1129 -26 1046 z m 67 875 l 67 0 l 303 0 l 303 875 z "},"Ĳ":{"ha":1138,"x_min":0,"x_max":0,"o":"m 67 875 l 67 0 l 303 0 l 303 875 z m 847 875 l 847 339 b 726 183 847 232 811 183 b 594 354 640 183 600 243 l 367 346 b 728 -17 368 113 503 -17 b 1083 318 936 -17 1083 83 l 1083 875 z "},"Ĵ":{"ha":782,"x_min":0,"x_max":0,"o":"m 492 875 l 492 339 b 371 183 492 232 456 183 b 239 354 285 183 244 243 l 11 346 b 372 -17 13 113 147 -17 b 728 318 581 -17 728 83 l 728 875 z m 500 1125 l 381 928 l 522 928 l 606 1004 l 689 928 l 831 928 l 711 1125 z "},"Ķ":{"ha":890,"x_min":0,"x_max":0,"o":"m 904 0 l 550 503 l 888 875 l 617 875 l 303 521 l 303 875 l 67 875 l 67 0 l 303 0 l 303 265 l 379 349 l 622 0 z m 347 -185 l 424 -185 b 347 -229 422 -221 399 -229 l 347 -303 b 544 -149 475 -303 544 -260 l 544 -47 l 347 -47 z "},"Ĺ":{"ha":771,"x_min":0,"x_max":0,"o":"m 67 875 l 67 0 l 736 0 l 736 194 l 303 194 l 303 875 z m 271 928 l 406 1125 l 185 1125 l 110 928 z "},"Ľ":{"ha":771,"x_min":0,"x_max":0,"o":"m 67 875 l 67 0 l 736 0 l 736 194 l 303 194 l 303 875 z m 551 668 l 643 875 l 428 875 l 410 668 z "},"Ļ":{"ha":771,"x_min":0,"x_max":0,"o":"m 67 875 l 67 0 l 736 0 l 736 194 l 303 194 l 303 875 z m 303 -185 l 379 -185 b 303 -229 378 -221 354 -229 l 303 -303 b 500 -149 431 -303 500 -260 l 500 -47 l 303 -47 z "},"Ŀ":{"ha":771,"x_min":0,"x_max":0,"o":"m 67 875 l 67 0 l 736 0 l 736 194 l 303 194 l 303 875 z m 461 400 l 689 400 l 689 597 l 461 597 z "},"Ń":{"ha":917,"x_min":0,"x_max":0,"o":"m 292 875 l 67 875 l 67 0 l 283 0 l 283 518 l 661 0 l 850 0 l 850 875 l 633 875 l 633 390 z m 550 928 l 685 1125 l 464 1125 l 389 928 z "},"Ň":{"ha":917,"x_min":0,"x_max":0,"o":"m 292 875 l 67 875 l 67 0 l 283 0 l 283 518 l 661 0 l 850 0 l 850 875 l 633 875 l 633 390 z m 578 928 l 697 1125 l 556 1125 l 472 1049 l 389 1125 l 247 1125 l 367 928 z "},"Ņ":{"ha":917,"x_min":0,"x_max":0,"o":"m 292 875 l 67 875 l 67 0 l 283 0 l 283 518 l 661 0 l 850 0 l 850 875 l 633 875 l 633 390 z m 374 -185 l 450 -185 b 374 -229 449 -221 425 -229 l 374 -303 b 571 -149 501 -303 571 -260 l 571 -47 l 374 -47 z "},"Ŋ":{"ha":917,"x_min":0,"x_max":0,"o":"m 367 -150 b 582 -239 407 -199 493 -239 b 850 58 756 -239 850 -139 l 850 875 l 633 875 l 633 390 l 292 875 l 67 875 l 67 0 l 283 0 l 283 518 l 632 39 b 554 -50 632 -22 613 -50 b 463 -8 521 -50 486 -32 z "},"Ŏ":{"ha":964,"x_min":0,"x_max":0,"o":"m 936 438 b 482 892 936 707 736 892 b 28 438 228 892 28 707 b 482 -17 28 168 228 -17 b 936 438 736 -17 936 168 z m 693 438 b 482 192 693 289 611 192 b 271 438 353 192 271 289 b 482 683 271 586 353 683 b 693 438 611 683 693 586 z m 482 928 b 679 1125 606 928 679 1001 l 553 1125 b 482 1061 553 1081 522 1061 b 411 1125 442 1061 411 1081 l 285 1125 b 482 928 285 1001 358 928 z "},"Ő":{"ha":964,"x_min":0,"x_max":0,"o":"m 936 438 b 482 892 936 707 736 892 b 28 438 228 892 28 707 b 482 -17 28 168 228 -17 b 936 438 736 -17 936 168 z m 693 438 b 482 192 693 289 611 192 b 271 438 353 192 271 289 b 482 683 271 586 353 683 b 693 438 611 683 693 586 z m 431 928 l 546 1125 l 340 1125 l 285 928 z m 669 928 l 785 1125 l 579 1125 l 524 928 z "},"Ō":{"ha":964,"x_min":0,"x_max":0,"o":"m 936 438 b 482 892 936 707 736 892 b 28 438 228 892 28 707 b 482 -17 28 168 228 -17 b 936 438 736 -17 936 168 z m 693 438 b 482 192 693 289 611 192 b 271 438 353 192 271 289 b 482 683 271 586 353 683 b 693 438 611 683 693 586 z m 285 933 l 681 933 l 681 1083 l 285 1083 z "},"Ǿ":{"ha":964,"x_min":0,"x_max":0,"o":"m 936 438 b 804 765 936 572 886 686 l 874 856 l 775 926 l 706 838 b 482 892 640 872 564 892 b 28 438 228 892 28 707 b 150 118 28 307 74 197 l 75 19 l 174 -51 l 247 43 b 482 -17 315 4 396 -17 b 936 438 736 -17 936 168 z m 693 438 b 482 192 693 289 611 192 b 379 215 443 192 408 200 l 661 579 b 693 438 682 540 693 493 z m 271 438 b 482 683 271 586 353 683 b 572 664 515 683 546 676 l 297 307 b 271 438 281 343 271 388 z m 560 928 l 694 1125 l 474 1125 l 399 928 z "},"Ŕ":{"ha":885,"x_min":0,"x_max":0,"o":"m 860 0 b 814 201 831 32 826 71 b 661 372 804 303 751 354 b 847 597 768 386 847 469 b 508 875 847 768 735 875 l 67 875 l 67 0 l 299 0 l 299 290 l 456 290 b 585 168 535 290 578 268 b 621 0 592 78 603 24 z m 299 472 l 299 686 l 467 686 b 617 578 567 686 617 649 b 467 472 617 497 567 472 z m 524 928 l 658 1125 l 438 1125 l 363 928 z "},"Ř":{"ha":885,"x_min":0,"x_max":0,"o":"m 860 0 b 814 201 831 32 826 71 b 661 372 804 303 751 354 b 847 597 768 386 847 469 b 508 875 847 768 735 875 l 67 875 l 67 0 l 299 0 l 299 290 l 456 290 b 585 168 535 290 578 268 b 621 0 592 78 603 24 z m 299 472 l 299 686 l 467 686 b 617 578 567 686 617 649 b 467 472 617 497 567 472 z m 551 928 l 671 1125 l 529 1125 l 446 1049 l 363 1125 l 221 1125 l 340 928 z "},"Ŗ":{"ha":885,"x_min":0,"x_max":0,"o":"m 860 0 b 814 201 831 32 826 71 b 661 372 804 303 751 354 b 847 597 768 386 847 469 b 508 875 847 768 735 875 l 67 875 l 67 0 l 299 0 l 299 290 l 456 290 b 585 168 535 290 578 268 b 621 0 592 78 603 24 z m 299 472 l 299 686 l 467 686 b 617 578 567 686 617 649 b 467 472 617 497 567 472 z m 347 -185 l 424 -185 b 347 -229 422 -221 399 -229 l 347 -303 b 544 -149 475 -303 544 -260 l 544 -47 l 347 -47 z "},"Ś":{"ha":842,"x_min":0,"x_max":0,"o":"m 28 310 b 435 -17 28 99 197 -17 b 800 263 639 -17 800 76 b 533 533 800 406 717 501 l 368 563 b 281 628 314 572 281 588 b 403 707 281 676 325 707 b 565 575 493 707 558 665 l 782 579 b 406 892 778 774 647 892 b 49 607 188 892 49 785 b 292 347 49 454 149 374 l 451 319 b 569 247 518 307 569 299 b 435 169 569 199 517 169 b 244 317 338 169 253 207 z m 500 928 l 635 1125 l 414 1125 l 339 928 z "},"Ş":{"ha":842,"x_min":0,"x_max":0,"o":"m 585 -142 b 425 -50 585 -65 507 -35 l 451 -17 b 800 263 647 -11 800 81 b 533 533 800 406 717 501 l 368 563 b 281 628 314 572 281 588 b 403 707 281 676 325 707 b 565 575 493 707 558 665 l 782 579 b 406 892 778 774 647 892 b 49 607 188 892 49 785 b 292 347 49 454 149 374 l 451 319 b 569 247 518 307 569 299 b 435 169 569 199 517 169 b 244 317 338 169 253 207 l 28 310 b 383 -14 28 114 172 0 l 317 -110 l 360 -125 b 456 -144 396 -110 456 -107 b 400 -174 456 -167 435 -174 b 283 -143 353 -174 314 -161 l 260 -197 b 418 -243 290 -222 349 -243 b 585 -142 501 -243 585 -217 z "},"Ŝ":{"ha":842,"x_min":0,"x_max":0,"o":"m 28 310 b 435 -17 28 99 197 -17 b 800 263 639 -17 800 76 b 533 533 800 406 717 501 l 368 563 b 281 628 314 572 281 588 b 403 707 281 676 325 707 b 565 575 493 707 558 665 l 782 579 b 406 892 778 774 647 892 b 49 607 188 892 49 785 b 292 347 49 454 149 374 l 451 319 b 569 247 518 307 569 299 b 435 169 569 199 517 169 b 244 317 338 169 253 207 z m 317 1125 l 197 928 l 339 928 l 422 1004 l 506 928 l 647 928 l 528 1125 z "},"Ș":{"ha":842,"x_min":0,"x_max":0,"o":"m 28 310 b 435 -17 28 99 197 -17 b 800 263 639 -17 800 76 b 533 533 800 406 717 501 l 368 563 b 281 628 314 572 281 588 b 403 707 281 676 325 707 b 565 575 493 707 558 665 l 782 579 b 406 892 778 774 647 892 b 49 607 188 892 49 785 b 292 347 49 454 149 374 l 451 319 b 569 247 518 307 569 299 b 435 169 569 199 517 169 b 244 317 338 169 253 207 z m 324 -185 l 400 -185 b 324 -229 399 -221 375 -229 l 324 -303 b 521 -149 451 -303 521 -260 l 521 -47 l 324 -47 z "},"Ŧ":{"ha":908,"x_min":0,"x_max":0,"o":"m 181 318 l 335 318 l 335 0 l 569 0 l 569 318 l 724 318 l 724 510 l 569 510 l 569 681 l 874 681 l 874 875 l 35 875 l 35 681 l 335 681 l 335 510 l 181 510 z "},"Ť":{"ha":908,"x_min":0,"x_max":0,"o":"m 569 0 l 569 681 l 874 681 l 874 875 l 35 875 l 35 681 l 335 681 l 335 0 z m 560 928 l 679 1125 l 538 1125 l 454 1049 l 371 1125 l 229 1125 l 349 928 z "},"Ŭ":{"ha":917,"x_min":0,"x_max":0,"o":"m 458 -17 b 857 347 683 -17 857 92 l 857 875 l 621 875 l 621 386 b 458 182 621 253 581 182 b 296 386 338 182 296 253 l 296 875 l 61 875 l 61 347 b 458 -17 61 92 233 -17 z m 458 928 b 656 1125 582 928 656 1001 l 529 1125 b 458 1061 529 1081 499 1061 b 388 1125 418 1061 388 1081 l 261 1125 b 458 928 261 1001 335 928 z "},"Ű":{"ha":917,"x_min":0,"x_max":0,"o":"m 458 -17 b 857 347 683 -17 857 92 l 857 875 l 621 875 l 621 386 b 458 182 621 253 581 182 b 296 386 338 182 296 253 l 296 875 l 61 875 l 61 347 b 458 -17 61 92 233 -17 z m 407 928 l 522 1125 l 317 1125 l 261 928 z m 646 928 l 761 1125 l 556 1125 l 500 928 z "},"Ū":{"ha":917,"x_min":0,"x_max":0,"o":"m 458 -17 b 857 347 683 -17 857 92 l 857 875 l 621 875 l 621 386 b 458 182 621 253 581 182 b 296 386 338 182 296 253 l 296 875 l 61 875 l 61 347 b 458 -17 61 92 233 -17 z m 261 933 l 657 933 l 657 1083 l 261 1083 z "},"Ų":{"ha":917,"x_min":0,"x_max":0,"o":"m 458 -17 l 479 -17 b 417 -143 439 -54 417 -96 b 549 -243 417 -203 465 -243 b 661 -210 607 -243 638 -225 l 661 -110 b 600 -126 640 -119 622 -126 b 563 -90 578 -126 563 -114 b 649 15 563 -58 590 -37 b 857 347 774 65 857 171 l 857 875 l 621 875 l 621 386 b 458 182 621 253 581 182 b 296 386 338 182 296 253 l 296 875 l 61 875 l 61 347 b 458 -17 61 92 233 -17 z "},"Ů":{"ha":917,"x_min":0,"x_max":0,"o":"m 458 -17 b 857 347 683 -17 857 92 l 857 875 l 621 875 l 621 386 b 458 182 621 253 581 182 b 296 386 338 182 296 253 l 296 875 l 61 875 l 61 347 b 458 -17 61 92 233 -17 z m 411 1051 b 458 1099 411 1079 426 1099 b 506 1051 490 1099 506 1079 b 458 1004 506 1024 490 1004 b 411 1051 426 1004 411 1024 z m 322 1051 b 458 921 322 976 376 921 b 594 1051 540 921 594 976 b 458 1182 594 1126 540 1182 b 322 1051 376 1182 322 1126 z "},"Ũ":{"ha":917,"x_min":0,"x_max":0,"o":"m 458 -17 b 857 347 683 -17 857 92 l 857 875 l 621 875 l 621 386 b 458 182 621 253 581 182 b 296 386 338 182 296 253 l 296 875 l 61 875 l 61 347 b 458 -17 61 92 233 -17 z m 351 928 b 396 975 354 964 375 975 b 544 924 443 975 481 924 b 669 1125 626 924 669 1007 l 565 1125 b 521 1078 563 1089 542 1078 b 372 1129 474 1078 436 1129 b 247 928 290 1129 247 1046 z "},"Ẃ":{"ha":1254,"x_min":0,"x_max":0,"o":"m 738 875 l 525 875 l 381 326 l 375 326 l 236 875 l 0 875 l 229 0 l 476 0 l 622 553 l 628 553 l 774 0 l 1025 0 l 1254 875 l 1026 875 l 888 326 l 882 326 z m 704 928 l 839 1125 l 618 1125 l 543 928 z "},"Ŵ":{"ha":1254,"x_min":0,"x_max":0,"o":"m 738 875 l 525 875 l 381 326 l 375 326 l 236 875 l 0 875 l 229 0 l 476 0 l 622 553 l 628 553 l 774 0 l 1025 0 l 1254 875 l 1026 875 l 888 326 l 882 326 z m 521 1125 l 401 928 l 543 928 l 626 1004 l 710 928 l 851 928 l 732 1125 z "},"Ẁ":{"ha":1254,"x_min":0,"x_max":0,"o":"m 738 875 l 525 875 l 381 326 l 375 326 l 236 875 l 0 875 l 229 0 l 476 0 l 622 553 l 628 553 l 774 0 l 1025 0 l 1254 875 l 1026 875 l 888 326 l 882 326 z m 708 928 l 633 1125 l 413 1125 l 547 928 z "},"Ẅ":{"ha":1254,"x_min":0,"x_max":0,"o":"m 738 875 l 525 875 l 381 326 l 375 326 l 236 875 l 0 875 l 229 0 l 476 0 l 622 553 l 628 553 l 774 0 l 1025 0 l 1254 875 l 1026 875 l 888 326 l 882 326 z m 397 928 l 594 928 l 594 1125 l 397 1125 z m 658 928 l 856 928 l 856 1125 l 658 1125 z "},"Ŷ":{"ha":901,"x_min":0,"x_max":0,"o":"m 460 560 l 263 875 l 0 875 l 336 332 l 336 0 l 565 0 l 565 332 l 901 875 l 647 875 z m 344 1125 l 225 928 l 367 928 l 450 1004 l 533 928 l 675 928 l 556 1125 z "},"Ỳ":{"ha":901,"x_min":0,"x_max":0,"o":"m 460 560 l 263 875 l 0 875 l 336 332 l 336 0 l 565 0 l 565 332 l 901 875 l 647 875 z m 532 928 l 457 1125 l 236 1125 l 371 928 z "},"Ź":{"ha":825,"x_min":0,"x_max":0,"o":"m 339 194 l 772 692 l 772 875 l 46 875 l 46 681 l 472 681 l 42 179 l 42 0 l 783 0 l 783 194 z m 490 928 l 625 1125 l 404 1125 l 329 928 z "},"Ż":{"ha":825,"x_min":0,"x_max":0,"o":"m 339 194 l 772 692 l 772 875 l 46 875 l 46 681 l 472 681 l 42 179 l 42 0 l 783 0 l 783 194 z m 299 928 l 526 928 l 526 1125 l 299 1125 z "},"ă":{"ha":732,"x_min":0,"x_max":0,"o":"m 419 258 b 304 131 419 178 368 131 b 242 183 267 131 242 151 b 328 251 242 224 274 240 l 419 268 z m 640 393 b 356 636 640 565 519 636 b 49 406 169 636 68 542 l 257 392 b 342 469 267 438 292 469 b 419 388 396 469 419 439 l 419 378 l 246 349 b 25 154 111 325 25 274 b 225 -14 25 49 104 -14 b 431 96 324 -14 394 24 b 588 -14 451 25 511 -14 b 728 26 651 -14 696 4 l 728 146 b 678 136 710 139 696 136 b 640 182 654 136 640 150 z m 360 678 b 557 875 483 678 557 751 l 431 875 b 360 811 431 831 400 811 b 289 875 319 811 289 831 l 163 875 b 360 678 163 751 236 678 z "},"ā":{"ha":732,"x_min":0,"x_max":0,"o":"m 419 258 b 304 131 419 178 368 131 b 242 183 267 131 242 151 b 328 251 242 224 274 240 l 419 268 z m 640 393 b 356 636 640 565 519 636 b 49 406 169 636 68 542 l 257 392 b 342 469 267 438 292 469 b 419 388 396 469 419 439 l 419 378 l 246 349 b 25 154 111 325 25 274 b 225 -14 25 49 104 -14 b 431 96 324 -14 394 24 b 588 -14 451 25 511 -14 b 728 26 651 -14 696 4 l 728 146 b 678 136 710 139 696 136 b 640 182 654 136 640 150 z m 169 683 l 551 683 l 551 833 l 169 833 z "},"ą":{"ha":732,"x_min":0,"x_max":0,"o":"m 640 393 b 356 636 640 565 519 636 b 49 406 169 636 68 542 l 257 392 b 342 469 267 438 292 469 b 419 388 396 469 419 439 l 419 378 l 246 349 b 25 154 111 325 25 274 b 225 -14 25 49 104 -14 b 431 96 324 -14 394 24 b 551 -11 447 36 493 0 b 483 -143 508 -50 483 -94 b 615 -243 483 -203 532 -243 b 728 -210 674 -243 704 -225 l 728 -110 b 667 -126 707 -119 689 -126 b 629 -90 644 -126 629 -114 b 728 26 629 -60 654 -35 l 728 146 b 678 136 710 139 696 136 b 640 182 654 136 640 150 z m 419 260 b 304 131 419 179 368 131 b 242 183 267 131 242 151 b 328 251 242 224 275 240 l 419 269 z "},"ǻ":{"ha":732,"x_min":0,"x_max":0,"o":"m 443 928 l 560 1088 l 339 1088 l 282 928 z m 313 779 b 360 822 313 806 328 822 b 408 779 393 822 408 806 b 360 736 408 753 393 736 b 313 779 328 736 313 753 z m 224 779 b 360 658 224 710 278 658 b 497 779 443 658 497 710 b 360 900 497 849 443 900 b 224 779 278 900 224 849 z m 419 258 b 304 131 419 178 368 131 b 242 183 267 131 242 151 b 328 251 242 224 274 240 l 419 268 z m 640 393 b 356 636 640 565 519 636 b 49 406 169 636 68 542 l 257 392 b 342 469 267 438 292 469 b 419 388 396 469 419 439 l 419 378 l 246 349 b 25 154 111 325 25 274 b 225 -14 25 49 104 -14 b 431 96 324 -14 394 24 b 588 -14 451 25 511 -14 b 728 26 651 -14 696 4 l 728 146 b 678 136 710 139 696 136 b 640 182 654 136 640 150 z "},"ǽ":{"ha":1085,"x_min":0,"x_max":0,"o":"m 333 636 b 53 411 188 636 72 547 l 247 400 b 343 469 258 440 293 469 b 431 382 397 469 431 436 l 431 372 l 332 372 b 25 168 144 372 25 308 b 246 -14 25 67 104 -14 b 492 99 363 -14 449 33 b 740 -17 546 24 624 -17 b 1050 204 904 -17 1018 63 l 869 221 b 749 151 849 172 810 151 b 615 267 689 151 629 179 l 1054 267 l 1054 326 b 738 636 1054 494 944 636 b 532 557 660 636 575 604 b 333 636 486 613 419 636 z m 313 131 b 242 192 267 131 242 156 b 344 267 242 242 279 267 l 431 267 l 431 250 b 313 131 431 175 378 131 z m 735 475 b 840 372 801 475 838 428 l 618 372 b 735 475 633 443 676 475 z m 617 678 l 751 875 l 531 875 l 456 678 z "},"ć":{"ha":697,"x_min":0,"x_max":0,"o":"m 28 310 b 367 -17 28 113 171 -17 b 672 253 553 -17 657 103 l 488 267 b 369 153 472 190 435 153 b 254 310 301 153 254 199 b 369 467 254 421 301 467 b 488 354 435 467 472 431 l 672 367 b 367 636 657 515 553 636 b 28 310 171 636 28 506 z m 442 678 l 576 875 l 356 875 l 281 678 z "},"č":{"ha":697,"x_min":0,"x_max":0,"o":"m 28 310 b 367 -17 28 113 171 -17 b 672 253 553 -17 657 103 l 488 267 b 369 153 472 190 435 153 b 254 310 301 153 254 199 b 369 467 254 421 301 467 b 488 354 435 467 472 431 l 672 367 b 367 636 657 515 553 636 b 28 310 171 636 28 506 z m 469 678 l 589 875 l 447 875 l 364 799 l 281 875 l 139 875 l 258 678 z "},"ĉ":{"ha":697,"x_min":0,"x_max":0,"o":"m 28 310 b 367 -17 28 113 171 -17 b 672 253 553 -17 657 103 l 488 267 b 369 153 472 190 435 153 b 254 310 301 153 254 199 b 369 467 254 421 301 467 b 488 354 435 467 472 431 l 672 367 b 367 636 657 515 553 636 b 28 310 171 636 28 506 z m 258 875 l 139 678 l 281 678 l 364 754 l 447 678 l 589 678 l 469 875 z "},"ċ":{"ha":697,"x_min":0,"x_max":0,"o":"m 28 310 b 367 -17 28 113 171 -17 b 672 253 553 -17 657 103 l 488 267 b 369 153 472 190 435 153 b 254 310 301 153 254 199 b 369 467 254 421 301 467 b 488 354 435 467 472 431 l 672 367 b 367 636 657 515 553 636 b 28 310 171 636 28 506 z m 250 678 l 478 678 l 478 875 l 250 875 z "},"ď":{"ha":792,"x_min":0,"x_max":0,"o":"m 506 306 b 382 157 506 215 457 157 b 254 310 293 157 254 219 b 382 461 254 399 293 461 b 506 314 457 461 506 403 z m 506 0 l 731 0 l 731 875 l 506 875 l 506 513 b 303 636 476 586 406 636 b 28 310 119 636 28 492 b 303 -17 28 126 119 -17 b 506 106 406 -17 476 33 z m 915 668 l 1007 875 l 792 875 l 774 668 z "},"đ":{"ha":792,"x_min":0,"x_max":0,"o":"m 506 0 l 731 0 l 731 650 l 806 650 l 806 788 l 731 788 l 731 875 l 506 875 l 506 788 l 333 788 l 333 650 l 506 650 l 506 492 b 303 611 476 563 406 611 b 28 297 119 611 28 472 b 303 -17 28 121 119 -17 b 506 101 406 -17 476 32 z m 506 300 b 382 160 506 215 457 160 b 254 303 293 160 254 218 b 382 446 254 388 293 446 b 506 307 457 446 506 390 z "},"ĕ":{"ha":713,"x_min":0,"x_max":0,"o":"m 497 221 b 376 151 476 172 438 151 b 247 264 308 151 253 188 l 682 264 l 682 326 b 365 636 682 494 572 636 b 28 300 172 636 28 496 b 368 -17 28 103 169 -17 b 678 204 532 -17 646 63 z m 250 372 b 363 475 258 431 290 475 b 468 372 429 475 465 428 z m 368 678 b 565 875 492 678 565 751 l 439 875 b 368 811 439 831 408 811 b 297 875 328 811 297 831 l 171 875 b 368 678 171 751 244 678 z "},"ě":{"ha":713,"x_min":0,"x_max":0,"o":"m 497 221 b 376 151 476 172 438 151 b 247 264 308 151 253 188 l 682 264 l 682 326 b 365 636 682 494 572 636 b 28 300 172 636 28 496 b 368 -17 28 103 169 -17 b 678 204 532 -17 646 63 z m 250 372 b 363 475 258 431 290 475 b 468 372 429 475 465 428 z m 474 678 l 593 875 l 451 875 l 368 799 l 285 875 l 143 875 l 263 678 z "},"ė":{"ha":713,"x_min":0,"x_max":0,"o":"m 497 221 b 376 151 476 172 438 151 b 247 264 308 151 253 188 l 682 264 l 682 326 b 365 636 682 494 572 636 b 28 300 172 636 28 496 b 368 -17 28 103 169 -17 b 678 204 532 -17 646 63 z m 250 372 b 363 475 258 431 290 475 b 468 372 429 475 465 428 z m 254 678 l 482 678 l 482 875 l 254 875 z "},"ē":{"ha":713,"x_min":0,"x_max":0,"o":"m 497 221 b 376 151 476 172 438 151 b 247 264 308 151 253 188 l 682 264 l 682 326 b 365 636 682 494 572 636 b 28 300 172 636 28 496 b 368 -17 28 103 169 -17 b 678 204 532 -17 646 63 z m 250 372 b 363 475 258 431 290 475 b 468 372 429 475 465 428 z m 178 683 l 560 683 l 560 833 l 178 833 z "},"ę":{"ha":713,"x_min":0,"x_max":0,"o":"m 497 221 b 376 151 476 172 438 151 b 247 264 308 151 253 188 l 682 264 l 682 326 b 365 636 682 494 572 636 b 28 300 172 636 28 496 b 368 -17 28 103 169 -17 l 374 -17 b 311 -143 333 -54 311 -96 b 443 -243 311 -203 360 -243 b 556 -210 501 -243 532 -225 l 556 -110 b 494 -126 535 -119 517 -126 b 457 -90 472 -126 457 -114 b 564 35 457 -58 490 -18 b 678 204 619 75 661 129 z m 250 372 b 363 475 258 431 290 475 b 468 372 429 475 465 428 z "},"ğ":{"ha":718,"x_min":0,"x_max":0,"o":"m 646 424 b 626 503 646 453 639 479 b 717 513 657 510 690 513 l 717 682 b 543 586 649 682 581 638 b 344 636 490 618 419 636 b 46 424 171 636 46 556 b 135 267 46 356 79 303 b 29 136 68 242 29 196 b 118 15 29 83 63 33 b 0 -87 49 10 0 -33 b 329 -239 0 -204 153 -239 b 718 -14 531 -239 718 -168 b 507 164 718 90 647 164 l 250 164 b 197 201 213 164 197 181 b 210 231 197 214 201 224 b 344 213 250 218 294 213 b 646 424 519 213 646 293 z m 358 678 b 556 875 482 678 556 751 l 429 875 b 358 811 429 831 399 811 b 288 875 318 811 288 831 l 161 875 b 358 678 161 751 235 678 z m 185 -65 b 226 -28 185 -42 201 -28 l 454 -28 b 511 -64 492 -28 511 -37 b 331 -122 511 -101 435 -122 b 185 -65 247 -122 185 -110 z m 413 424 b 347 333 413 368 385 333 b 282 424 310 333 282 368 b 347 513 282 478 310 513 b 413 424 385 513 413 478 z "},"ĝ":{"ha":718,"x_min":0,"x_max":0,"o":"m 646 424 b 626 503 646 453 639 479 b 717 513 657 510 690 513 l 717 682 b 543 586 649 682 581 638 b 344 636 490 618 419 636 b 46 424 171 636 46 556 b 135 267 46 356 79 303 b 29 136 68 242 29 196 b 118 15 29 83 63 33 b 0 -87 49 10 0 -33 b 329 -239 0 -204 153 -239 b 718 -14 531 -239 718 -168 b 507 164 718 90 647 164 l 250 164 b 197 201 213 164 197 181 b 210 231 197 214 201 224 b 344 213 250 218 294 213 b 646 424 519 213 646 293 z m 253 875 l 133 678 l 275 678 l 358 754 l 442 678 l 583 678 l 464 875 z m 185 -65 b 226 -28 185 -42 201 -28 l 454 -28 b 511 -64 492 -28 511 -37 b 331 -122 511 -101 435 -122 b 185 -65 247 -122 185 -110 z m 413 424 b 347 333 413 368 385 333 b 282 424 310 333 282 368 b 347 513 282 478 310 513 b 413 424 385 513 413 478 z "},"ģ":{"ha":718,"x_min":0,"x_max":0,"o":"m 646 424 b 626 503 646 453 639 479 b 717 513 657 510 690 513 l 717 682 b 543 586 649 682 581 638 b 344 636 490 618 419 636 b 46 424 171 636 46 556 b 135 267 46 356 79 303 b 29 136 68 242 29 196 b 118 15 29 83 63 33 b 0 -87 49 10 0 -33 b 329 -239 0 -204 153 -239 b 718 -14 531 -239 718 -168 b 507 164 718 90 647 164 l 250 164 b 197 201 213 164 197 181 b 210 231 197 214 201 224 b 344 213 250 218 294 213 b 646 424 519 213 646 293 z m 457 815 l 381 815 b 457 860 382 851 406 860 l 457 933 b 260 779 329 933 260 890 l 260 678 l 457 678 z m 185 -65 b 226 -28 185 -42 201 -28 l 454 -28 b 511 -64 492 -28 511 -37 b 331 -122 511 -101 435 -122 b 185 -65 247 -122 185 -110 z m 413 424 b 347 333 413 368 385 333 b 282 424 310 333 282 368 b 347 513 282 478 310 513 b 413 424 385 513 413 478 z "},"ġ":{"ha":718,"x_min":0,"x_max":0,"o":"m 646 424 b 626 503 646 453 639 479 b 717 513 657 510 690 513 l 717 682 b 543 586 649 682 581 638 b 344 636 490 618 419 636 b 46 424 171 636 46 556 b 135 267 46 356 79 303 b 29 136 68 242 29 196 b 118 15 29 83 63 33 b 0 -87 49 10 0 -33 b 329 -239 0 -204 153 -239 b 718 -14 531 -239 718 -168 b 507 164 718 90 647 164 l 250 164 b 197 201 213 164 197 181 b 210 231 197 214 201 224 b 344 213 250 218 294 213 b 646 424 519 213 646 293 z m 244 678 l 472 678 l 472 875 l 244 875 z m 185 -65 b 226 -28 185 -42 201 -28 l 454 -28 b 511 -64 492 -28 511 -37 b 331 -122 511 -101 435 -122 b 185 -65 247 -122 185 -110 z m 413 424 b 347 333 413 368 385 333 b 282 424 310 333 282 368 b 347 513 282 478 310 513 b 413 424 385 513 413 478 z "},"ħ":{"ha":764,"x_min":0,"x_max":0,"o":"m -14 650 l 61 650 l 61 0 l 286 0 l 286 281 b 393 435 286 374 317 435 b 485 306 461 435 485 390 l 485 0 l 710 0 l 710 365 b 486 613 710 494 656 613 b 286 503 393 613 319 571 l 286 650 l 458 650 l 458 788 l 286 788 l 286 875 l 61 875 l 61 788 l -14 788 z "},"ĥ":{"ha":764,"x_min":0,"x_max":0,"o":"m 286 304 b 393 458 286 397 317 458 b 485 329 461 458 485 414 l 485 0 l 710 0 l 710 389 b 486 636 710 518 656 636 b 286 526 393 636 319 594 l 286 875 l 61 875 l 61 0 l 286 0 z m 265 1125 l 146 928 l 288 928 l 371 1004 l 454 928 l 596 928 l 476 1125 z "},"ĭ":{"ha":347,"x_min":0,"x_max":0,"o":"m 61 619 l 61 0 l 286 0 l 286 619 z m 174 678 b 371 875 297 678 371 751 l 244 875 b 174 811 244 831 214 811 b 103 875 133 811 103 831 l -24 875 b 174 678 -24 751 50 678 z "},"ī":{"ha":347,"x_min":0,"x_max":0,"o":"m 61 619 l 61 0 l 286 0 l 286 619 z m 4 683 l 343 683 l 343 833 l 4 833 z "},"į":{"ha":347,"x_min":0,"x_max":0,"o":"m 61 619 l 61 0 l 124 0 b 42 -143 71 -40 42 -89 b 174 -243 42 -203 90 -243 b 286 -210 232 -243 263 -225 l 286 -110 b 225 -126 265 -119 247 -126 b 188 -90 203 -126 188 -114 b 286 0 188 -61 210 -42 l 286 619 z m 60 678 l 288 678 l 288 875 l 60 875 z "},"ĩ":{"ha":347,"x_min":0,"x_max":0,"o":"m 79 678 b 124 725 82 714 103 725 b 253 674 171 725 189 674 b 378 875 335 674 378 757 l 274 875 b 229 828 271 839 250 828 b 100 879 182 828 164 879 b -25 678 18 879 -25 796 z m 61 619 l 61 0 l 286 0 l 286 619 z "},"ĳ":{"ha":694,"x_min":0,"x_max":0,"o":"m 61 619 l 61 0 l 286 0 l 286 619 z m 60 678 l 288 678 l 288 875 l 60 875 z m 633 619 l 408 619 l 408 -10 b 349 -85 408 -62 388 -85 b 258 -58 319 -85 290 -78 l 224 -194 b 401 -239 264 -224 332 -239 b 633 -21 544 -239 633 -174 z m 407 678 l 635 678 l 635 875 l 407 875 z "},"ĵ":{"ha":347,"x_min":0,"x_max":0,"o":"m 286 619 l 61 619 l 61 -10 b 1 -85 61 -62 40 -85 b -89 -58 -28 -85 -57 -78 l -124 -194 b 54 -239 -83 -224 -15 -239 b 286 -21 197 -239 286 -174 z m 69 875 l -50 678 l 92 678 l 175 754 l 258 678 l 400 678 l 281 875 z "},"ķ":{"ha":760,"x_min":0,"x_max":0,"o":"m 286 196 l 340 251 l 518 0 l 771 0 l 507 376 l 763 619 l 499 619 l 286 406 l 286 875 l 61 875 l 61 0 l 286 0 z m 292 -185 l 368 -185 b 292 -229 367 -221 343 -229 l 292 -303 b 489 -149 419 -303 489 -260 l 489 -47 l 292 -47 z "},"ĸ":{"ha":760,"x_min":0,"x_max":0,"o":"m 286 196 l 340 251 l 518 0 l 771 0 l 507 376 l 763 619 l 499 619 l 286 406 l 286 619 l 61 619 l 61 0 l 286 0 z "},"ĺ":{"ha":347,"x_min":0,"x_max":0,"o":"m 61 875 l 61 0 l 286 0 l 286 875 z m 251 928 l 386 1125 l 165 1125 l 90 928 z "},"ľ":{"ha":347,"x_min":0,"x_max":0,"o":"m 61 875 l 61 0 l 286 0 l 286 875 z m 468 668 l 560 875 l 344 875 l 326 668 z "},"ļ":{"ha":347,"x_min":0,"x_max":0,"o":"m 61 875 l 61 0 l 286 0 l 286 875 z m 75 -185 l 151 -185 b 75 -229 150 -221 126 -229 l 75 -303 b 272 -149 203 -303 272 -260 l 272 -47 l 75 -47 z "},"ŀ":{"ha":576,"x_min":0,"x_max":0,"o":"m 61 875 l 61 0 l 286 0 l 286 875 z m 346 339 l 574 339 l 574 536 l 346 536 z "},"ń":{"ha":764,"x_min":0,"x_max":0,"o":"m 286 304 b 393 458 286 397 317 458 b 485 329 461 458 485 414 l 485 0 l 710 0 l 710 389 b 486 636 710 518 656 636 b 286 526 393 636 319 594 l 286 619 l 61 619 l 61 0 l 286 0 z m 471 678 l 606 875 l 385 875 l 310 678 z "},"ň":{"ha":764,"x_min":0,"x_max":0,"o":"m 286 304 b 393 458 286 397 317 458 b 485 329 461 458 485 414 l 485 0 l 710 0 l 710 389 b 486 636 710 518 656 636 b 286 526 393 636 319 594 l 286 619 l 61 619 l 61 0 l 286 0 z m 499 678 l 618 875 l 476 875 l 393 799 l 310 875 l 168 875 l 288 678 z "},"ņ":{"ha":764,"x_min":0,"x_max":0,"o":"m 286 304 b 393 458 286 397 317 458 b 485 329 461 458 485 414 l 485 0 l 710 0 l 710 389 b 486 636 710 518 656 636 b 286 526 393 636 319 594 l 286 619 l 61 619 l 61 0 l 286 0 z m 294 -185 l 371 -185 b 294 -229 369 -221 346 -229 l 294 -303 b 492 -149 422 -303 492 -260 l 492 -47 l 294 -47 z "},"ŋ":{"ha":764,"x_min":0,"x_max":0,"o":"m 485 -10 b 425 -85 485 -62 464 -85 b 335 -58 396 -85 367 -78 l 300 -194 b 478 -239 340 -224 408 -239 b 710 -21 621 -239 710 -174 l 710 389 b 486 636 710 518 656 636 b 286 526 393 636 319 594 l 286 619 l 61 619 l 61 0 l 286 0 l 286 304 b 393 458 286 397 317 458 b 485 329 461 458 485 414 z "},"ŏ":{"ha":733,"x_min":0,"x_max":0,"o":"m 254 310 b 367 467 254 403 288 467 b 479 310 444 467 479 403 b 367 153 479 217 444 153 b 254 310 288 153 254 217 z m 706 310 b 367 636 706 501 568 636 b 28 310 164 636 28 501 b 367 -17 28 117 164 -17 b 706 310 568 -17 706 117 z m 367 678 b 564 875 490 678 564 751 l 438 875 b 367 811 438 831 407 811 b 296 875 326 811 296 831 l 169 875 b 367 678 169 751 243 678 z "},"ő":{"ha":733,"x_min":0,"x_max":0,"o":"m 254 310 b 367 467 254 403 288 467 b 479 310 444 467 479 403 b 367 153 479 217 444 153 b 254 310 288 153 254 217 z m 706 310 b 367 636 706 501 568 636 b 28 310 164 636 28 501 b 367 -17 28 117 164 -17 b 706 310 568 -17 706 117 z m 313 678 l 428 875 l 222 875 l 167 678 z m 551 678 l 667 875 l 461 875 l 406 678 z "},"ō":{"ha":733,"x_min":0,"x_max":0,"o":"m 254 310 b 367 467 254 403 288 467 b 479 310 444 467 479 403 b 367 153 479 217 444 153 b 254 310 288 153 254 217 z m 706 310 b 367 636 706 501 568 636 b 28 310 164 636 28 501 b 367 -17 28 117 164 -17 b 706 310 568 -17 706 117 z m 176 683 l 558 683 l 558 833 l 176 833 z "},"ǿ":{"ha":733,"x_min":0,"x_max":0,"o":"m 706 310 b 619 536 706 401 674 479 l 678 607 l 600 667 l 540 596 b 367 636 492 622 432 636 b 28 310 164 636 28 501 b 113 82 28 217 58 139 l 56 13 l 133 -49 l 192 22 b 367 -17 242 -3 300 -17 b 706 310 568 -17 706 117 z m 444 678 l 579 875 l 358 875 l 283 678 z m 238 310 b 367 467 238 403 281 467 b 424 454 388 467 407 463 l 246 242 b 238 310 240 263 238 285 z m 496 310 b 367 153 496 217 451 153 b 310 164 344 153 325 156 l 486 376 b 496 310 493 357 496 335 z "},"ŕ":{"ha":550,"x_min":0,"x_max":0,"o":"m 542 613 b 456 636 526 625 493 636 b 286 510 374 636 308 579 l 286 619 l 61 619 l 61 0 l 286 0 l 286 283 b 421 426 286 388 338 426 b 528 400 464 426 497 418 z m 379 678 l 514 875 l 293 875 l 218 678 z "},"ř":{"ha":550,"x_min":0,"x_max":0,"o":"m 542 613 b 456 636 526 625 493 636 b 286 510 374 636 308 579 l 286 619 l 61 619 l 61 0 l 286 0 l 286 283 b 421 426 286 388 338 426 b 528 400 464 426 497 418 z m 407 678 l 526 875 l 385 875 l 301 799 l 218 875 l 76 875 l 196 678 z "},"ŗ":{"ha":550,"x_min":0,"x_max":0,"o":"m 542 613 b 456 636 526 625 493 636 b 286 510 374 636 308 579 l 286 619 l 61 619 l 61 0 l 286 0 l 286 283 b 421 426 286 388 338 426 b 528 400 464 426 497 418 z m 76 -185 l 153 -185 b 76 -229 151 -221 128 -229 l 76 -303 b 274 -149 204 -303 274 -260 l 274 -47 l 76 -47 z "},"ś":{"ha":640,"x_min":0,"x_max":0,"o":"m 17 201 b 328 -17 29 51 157 -17 b 615 189 504 -17 615 58 b 396 394 615 310 535 372 l 275 415 b 238 450 254 418 238 429 b 306 494 238 478 263 494 b 422 422 375 494 414 467 l 607 428 b 310 636 594 557 489 636 b 29 426 136 636 29 549 b 258 228 29 300 108 251 l 350 214 b 407 167 393 207 407 190 b 331 124 407 142 381 124 b 213 204 263 124 221 153 z m 401 678 l 536 875 l 315 875 l 240 678 z "},"ş":{"ha":640,"x_min":0,"x_max":0,"o":"m 486 -142 b 326 -50 486 -65 408 -35 l 353 -15 b 615 189 515 -8 615 64 b 396 394 615 310 535 372 l 275 415 b 238 450 254 418 238 429 b 306 494 238 478 263 494 b 422 422 375 494 414 467 l 607 428 b 310 636 594 557 489 636 b 29 426 136 636 29 549 b 258 228 29 300 108 251 l 350 214 b 407 167 393 207 407 190 b 331 124 407 142 381 124 b 213 204 263 124 221 153 l 17 201 b 285 -15 28 64 136 -4 l 218 -110 l 261 -125 b 357 -144 297 -110 357 -107 b 301 -174 357 -167 336 -174 b 185 -143 254 -174 215 -161 l 161 -197 b 319 -243 192 -222 250 -243 b 486 -142 403 -243 486 -217 z "},"ŝ":{"ha":640,"x_min":0,"x_max":0,"o":"m 17 201 b 328 -17 29 51 157 -17 b 615 189 504 -17 615 58 b 396 394 615 310 535 372 l 275 415 b 238 450 254 418 238 429 b 306 494 238 478 263 494 b 422 422 375 494 414 467 l 607 428 b 310 636 594 557 489 636 b 29 426 136 636 29 549 b 258 228 29 300 108 251 l 350 214 b 407 167 393 207 407 190 b 331 124 407 142 381 124 b 213 204 263 124 221 153 z m 218 875 l 99 678 l 240 678 l 324 754 l 407 678 l 549 678 l 429 875 z "},"ș":{"ha":640,"x_min":0,"x_max":0,"o":"m 17 201 b 328 -17 29 51 157 -17 b 615 189 504 -17 615 58 b 396 394 615 310 535 372 l 275 415 b 238 450 254 418 238 429 b 306 494 238 478 263 494 b 422 422 375 494 414 467 l 607 428 b 310 636 594 557 489 636 b 29 426 136 636 29 549 b 258 228 29 300 108 251 l 350 214 b 407 167 393 207 407 190 b 331 124 407 142 381 124 b 213 204 263 124 221 153 z m 225 -185 l 301 -185 b 225 -229 300 -221 276 -229 l 225 -303 b 422 -149 353 -303 422 -260 l 422 -47 l 225 -47 z "},"ŧ":{"ha":521,"x_min":0,"x_max":0,"o":"m 19 256 l 103 256 l 103 172 b 306 -17 103 26 201 -17 b 492 39 390 -17 444 4 l 492 185 b 396 164 454 169 424 164 b 325 238 350 164 325 185 l 325 256 l 486 256 l 486 393 l 325 393 l 325 464 l 486 464 l 486 619 l 325 619 l 325 790 l 183 790 l 163 710 b 65 610 147 653 128 619 l 19 603 l 19 464 l 103 464 l 103 393 l 19 393 z "},"ť":{"ha":497,"x_min":0,"x_max":0,"o":"m 83 172 b 286 -17 83 26 182 -17 b 472 39 371 -17 425 4 l 472 185 b 376 164 435 169 404 164 b 306 238 331 164 306 185 l 306 464 l 467 464 l 467 619 l 306 619 l 306 790 l 164 790 l 143 710 b 46 610 128 653 108 619 l 0 603 l 0 464 l 83 464 z m 485 668 l 576 875 l 361 875 l 343 668 z "},"ŭ":{"ha":756,"x_min":0,"x_max":0,"o":"m 469 315 b 371 160 469 221 442 160 b 279 289 303 160 279 206 l 279 619 l 54 619 l 54 229 b 275 -17 54 100 106 -17 b 469 93 368 -17 436 24 l 469 0 l 694 0 l 694 619 l 469 619 z m 374 678 b 571 875 497 678 571 751 l 444 875 b 374 811 444 831 414 811 b 303 875 333 811 303 831 l 176 875 b 374 678 176 751 250 678 z "},"ű":{"ha":756,"x_min":0,"x_max":0,"o":"m 469 315 b 371 160 469 221 442 160 b 279 289 303 160 279 206 l 279 619 l 54 619 l 54 229 b 275 -17 54 100 106 -17 b 469 93 368 -17 436 24 l 469 0 l 694 0 l 694 619 l 469 619 z m 319 678 l 435 875 l 229 875 l 174 678 z m 558 678 l 674 875 l 468 875 l 413 678 z "},"ū":{"ha":756,"x_min":0,"x_max":0,"o":"m 469 315 b 371 160 469 221 442 160 b 279 289 303 160 279 206 l 279 619 l 54 619 l 54 229 b 275 -17 54 100 106 -17 b 469 93 368 -17 436 24 l 469 0 l 694 0 l 694 619 l 469 619 z m 183 683 l 565 683 l 565 833 l 183 833 z "},"ų":{"ha":756,"x_min":0,"x_max":0,"o":"m 469 315 b 371 160 469 221 442 160 b 279 289 303 160 279 206 l 279 619 l 54 619 l 54 229 b 275 -17 54 100 106 -17 b 469 93 368 -17 436 24 l 469 0 l 532 0 b 450 -143 479 -40 450 -89 b 582 -243 450 -203 499 -243 b 694 -210 640 -243 671 -225 l 694 -110 b 633 -126 674 -119 656 -126 b 596 -90 611 -126 596 -114 b 694 0 596 -61 618 -42 l 694 619 l 469 619 z "},"ů":{"ha":756,"x_min":0,"x_max":0,"o":"m 469 315 b 371 160 469 221 442 160 b 279 289 303 160 279 206 l 279 619 l 54 619 l 54 229 b 275 -17 54 100 106 -17 b 469 93 368 -17 436 24 l 469 0 l 694 0 l 694 619 l 469 619 z m 326 801 b 374 849 326 829 342 849 b 421 801 406 849 421 829 b 374 754 421 774 406 754 b 326 801 342 754 326 774 z m 238 801 b 374 671 238 726 292 671 b 510 801 456 671 510 726 b 374 932 510 876 456 932 b 238 801 292 932 238 876 z "},"ũ":{"ha":756,"x_min":0,"x_max":0,"o":"m 469 315 b 371 160 469 221 442 160 b 279 289 303 160 279 206 l 279 619 l 54 619 l 54 229 b 275 -17 54 100 106 -17 b 469 93 368 -17 436 24 l 469 0 l 694 0 l 694 619 l 469 619 z m 269 678 b 314 725 272 714 293 725 b 463 674 361 725 399 674 b 588 875 544 674 588 757 l 483 875 b 439 828 481 839 460 828 b 290 879 392 828 354 879 b 165 678 208 879 165 796 z "},"ẃ":{"ha":1014,"x_min":0,"x_max":0,"o":"m 607 619 l 428 619 l 338 268 l 332 268 l 221 619 l -3 619 l 193 0 l 414 0 l 504 350 l 510 350 l 600 0 l 821 0 l 1017 619 l 814 619 l 703 268 l 697 268 z m 585 678 l 719 875 l 499 875 l 424 678 z "},"ŵ":{"ha":1014,"x_min":0,"x_max":0,"o":"m 607 619 l 428 619 l 338 268 l 332 268 l 221 619 l -3 619 l 193 0 l 414 0 l 504 350 l 510 350 l 600 0 l 821 0 l 1017 619 l 814 619 l 703 268 l 697 268 z m 401 875 l 282 678 l 424 678 l 507 754 l 590 678 l 732 678 l 613 875 z "},"ẁ":{"ha":1014,"x_min":0,"x_max":0,"o":"m 607 619 l 428 619 l 338 268 l 332 268 l 221 619 l -3 619 l 193 0 l 414 0 l 504 350 l 510 350 l 600 0 l 821 0 l 1017 619 l 814 619 l 703 268 l 697 268 z m 589 678 l 514 875 l 293 875 l 428 678 z "},"ẅ":{"ha":1014,"x_min":0,"x_max":0,"o":"m 607 619 l 428 619 l 338 268 l 332 268 l 221 619 l -3 619 l 193 0 l 414 0 l 504 350 l 510 350 l 600 0 l 821 0 l 1017 619 l 814 619 l 703 268 l 697 268 z m 278 678 l 475 678 l 475 875 l 278 875 z m 539 678 l 736 678 l 736 875 l 539 875 z "},"ŷ":{"ha":735,"x_min":0,"x_max":0,"o":"m 382 -222 l 738 619 l 517 619 l 376 257 l 371 257 l 233 619 l -3 619 l 250 -8 l 161 -222 z m 261 875 l 142 678 l 283 678 l 367 754 l 450 678 l 592 678 l 472 875 z "},"ỳ":{"ha":735,"x_min":0,"x_max":0,"o":"m 382 -222 l 738 619 l 517 619 l 376 257 l 371 257 l 233 619 l -3 619 l 250 -8 l 161 -222 z m 449 678 l 374 875 l 153 875 l 288 678 z "},"ź":{"ha":628,"x_min":0,"x_max":0,"o":"m 311 457 l 36 154 l 36 0 l 592 0 l 592 163 l 306 163 l 585 467 l 585 619 l 42 619 l 42 457 z m 392 678 l 526 875 l 306 875 l 231 678 z "},"ż":{"ha":628,"x_min":0,"x_max":0,"o":"m 311 457 l 36 154 l 36 0 l 592 0 l 592 163 l 306 163 l 585 467 l 585 619 l 42 619 l 42 457 z m 200 678 l 428 678 l 428 875 l 200 875 z "},"⅓":{"ha":1133,"x_min":0,"x_max":0,"o":"m 21 675 l 126 675 l 126 314 l 299 314 l 299 875 l 161 875 b 21 790 140 817 99 790 z m 915 168 b 867 129 915 142 890 129 b 799 189 826 129 800 146 l 629 194 b 867 -11 629 69 717 -11 b 1092 154 1000 -11 1092 46 b 979 285 1092 222 1054 271 b 1076 401 1031 290 1076 335 b 864 572 1076 503 999 572 b 635 361 719 572 635 476 l 800 354 b 858 432 800 396 818 432 b 906 383 890 432 906 414 b 856 335 906 353 882 335 b 817 336 846 335 825 335 l 817 215 b 854 217 832 218 847 217 b 915 168 889 217 915 201 z m 840 875 l 689 875 l 164 0 l 315 0 z "},"⅔":{"ha":1288,"x_min":0,"x_max":0,"o":"m 1069 168 b 1021 129 1069 142 1044 129 b 953 189 981 129 954 146 l 783 194 b 1021 -11 783 69 871 -11 b 1246 154 1154 -11 1246 46 b 1133 285 1246 222 1208 271 b 1231 401 1185 290 1231 335 b 1018 572 1231 503 1153 572 b 789 361 874 572 789 476 l 954 354 b 1013 432 954 396 972 432 b 1060 383 1044 432 1060 414 b 1010 335 1060 353 1036 335 b 971 336 1000 335 979 335 l 971 215 b 1008 217 986 218 1001 217 b 1069 168 1043 217 1069 201 z m 282 457 l 340 500 b 472 703 433 571 472 607 b 251 886 472 808 389 886 b 28 685 119 886 28 806 b 35 632 28 667 32 650 l 203 626 b 197 672 200 638 197 649 b 246 739 197 707 207 739 b 292 692 281 739 292 718 b 189 558 292 646 274 625 l 35 442 l 35 314 l 475 314 l 475 457 z m 994 875 l 843 875 l 318 0 l 469 0 z "},"⅛":{"ha":1153,"x_min":0,"x_max":0,"o":"m 21 675 l 126 675 l 126 314 l 299 314 l 299 875 l 161 875 b 21 790 140 817 99 790 z m 876 447 b 931 397 910 447 931 428 b 876 350 931 365 910 350 b 824 397 843 350 824 365 b 876 447 824 428 843 447 z m 876 232 b 940 175 915 232 940 213 b 876 118 940 138 915 118 b 811 175 836 118 811 138 b 876 232 811 213 836 232 z m 876 -11 b 1111 154 1026 -11 1111 53 b 1013 292 1111 224 1074 275 b 1096 415 1067 317 1096 351 b 876 572 1096 513 1006 572 b 654 415 744 572 654 513 b 739 292 654 351 683 317 b 639 154 676 275 639 224 b 876 -11 639 53 724 -11 z m 840 875 l 689 875 l 164 0 l 315 0 z "},"⅜":{"ha":1282,"x_min":0,"x_max":0,"o":"m 1006 447 b 1060 397 1039 447 1060 428 b 1006 350 1060 365 1039 350 b 953 397 972 350 953 365 b 1006 447 953 428 972 447 z m 1006 232 b 1069 175 1044 232 1069 213 b 1006 118 1069 138 1044 118 b 940 175 965 118 940 138 b 1006 232 940 213 965 232 z m 1006 -11 b 1240 154 1156 -11 1240 53 b 1142 292 1240 224 1203 275 b 1225 415 1196 317 1225 351 b 1006 572 1225 513 1135 572 b 783 415 874 572 783 513 b 868 292 783 351 813 317 b 768 154 806 275 768 224 b 1006 -11 768 53 853 -11 z m 314 482 b 265 443 314 456 289 443 b 197 503 225 443 199 460 l 28 508 b 265 303 28 383 115 303 b 490 468 399 303 490 360 b 378 599 490 536 453 585 b 475 715 429 604 475 649 b 263 886 475 817 397 886 b 33 675 118 886 33 790 l 199 668 b 257 746 199 710 217 746 b 304 697 289 746 304 728 b 254 649 304 667 281 649 b 215 650 244 649 224 649 l 215 529 b 253 531 231 532 246 531 b 314 482 288 531 314 515 z m 969 875 l 818 875 l 293 0 l 444 0 z "},"⅝":{"ha":1282,"x_min":0,"x_max":0,"o":"m 1006 447 b 1060 397 1039 447 1060 428 b 1006 350 1060 365 1039 350 b 953 397 972 350 953 365 b 1006 447 953 428 972 447 z m 1006 232 b 1069 175 1044 232 1069 213 b 1006 118 1069 138 1044 118 b 940 175 965 118 940 138 b 1006 232 940 213 965 232 z m 1006 -11 b 1240 154 1156 -11 1240 53 b 1142 292 1240 224 1203 275 b 1225 415 1196 317 1225 351 b 1006 572 1225 513 1135 572 b 783 415 874 572 783 513 b 868 292 783 351 813 317 b 768 154 806 275 768 224 b 1006 -11 768 53 853 -11 z m 439 875 l 79 875 b 43 557 78 782 56 633 l 208 544 b 263 569 221 561 235 569 b 324 503 304 569 324 538 b 263 443 324 464 297 443 b 201 499 226 443 203 463 l 36 510 b 263 303 32 379 110 303 b 482 503 388 303 482 375 b 286 697 482 614 417 697 b 197 679 240 697 215 689 b 206 739 201 699 204 717 l 439 739 z m 969 875 l 818 875 l 293 0 l 444 0 z "},"⅞":{"ha":1171,"x_min":0,"x_max":0,"o":"m 894 447 b 949 397 928 447 949 428 b 894 350 949 365 928 350 b 842 397 861 350 842 365 b 894 447 842 428 861 447 z m 894 232 b 958 175 933 232 958 213 b 894 118 958 138 933 118 b 829 175 854 118 829 138 b 894 232 829 213 854 232 z m 894 -11 b 1129 154 1044 -11 1129 53 b 1031 292 1129 224 1092 275 b 1114 415 1085 317 1114 351 b 894 572 1114 513 1024 572 b 672 415 763 572 672 513 b 757 292 672 351 701 317 b 657 154 694 275 657 224 b 894 -11 657 53 742 -11 z m 265 721 b 119 314 153 594 122 492 l 310 314 b 451 735 310 483 303 590 l 451 875 l 14 875 l 14 721 z m 858 875 l 707 875 l 182 0 l 333 0 z "}}}
